<?xml version="1.0" encoding="utf-8"?>
<!-- Generator: Adobe Illustrator 22.1.0, SVG Export Plug-In . SVG Version: 6.00 Build 0)  -->
<svg version="1.1" id="Layer_1" xmlns="http://www.w3.org/2000/svg" xmlns:xlink="http://www.w3.org/1999/xlink" x="0px" y="0px"
	 viewBox="0 0 800 800" style="enable-background:new 0 0 800 800;" xml:space="preserve">
<title>Skull 3</title>
<g>
	<path d="M243,329c-4.2,0-4.2,6.6,0,6.6C247.2,335.6,247.2,329,243,329z"/>
	<path d="M241.3,369.4c-0.6-0.6-1.5-0.9-2.3-1h-0.4c-0.9,0-1.7,0.4-2.3,1c-1.3,1.3-1.3,3.4,0,4.6l0,0c0.6,0.6,1.5,0.9,2.3,1h0.4
		c0.9,0,1.7-0.4,2.3-1C242.6,372.8,242.6,370.7,241.3,369.4C241.3,369.4,241.3,369.4,241.3,369.4z"/>
	<path d="M249.2,404.9C249.2,404.9,249.2,404.9,249.2,404.9c-0.6-0.6-1.5-0.9-2.3-1h-0.4c-0.9,0-1.7,0.4-2.3,1
		c-1.3,1.3-1.3,3.4,0,4.6c0,0,0,0,0,0c0.6,0.6,1.5,0.9,2.3,1h0.4c0.9,0,1.7-0.4,2.3-1C250.5,408.3,250.5,406.2,249.2,404.9z"/>
	<path d="M273.1,433.5c4.2,0,4.2-6.6,0-6.6C268.9,426.9,268.9,433.5,273.1,433.5z"/>
	<path d="M303.8,438.2c0.6,0.6,1.5,0.9,2.3,1h0.4c0.9,0,1.7-0.4,2.3-1c1.3-1.3,1.3-3.4,0-4.6l0,0c-0.6-0.6-1.5-0.9-2.3-1h-0.4
		c-0.9,0-1.7,0.4-2.3,1C302.5,434.9,302.5,436.9,303.8,438.2z"/>
	<path d="M340.1,422.6c-4.2,0-4.2,6.6,0,6.6C344.4,429.1,344.4,422.6,340.1,422.6z"/>
	<path d="M364.9,406.9c4.2,0,4.2-6.6,0-6.6C360.7,400.4,360.7,406.9,364.9,406.9z"/>
	<path d="M377.1,370.2c-4.2,0-4.2,6.6,0,6.6C381.3,376.8,381.3,370.2,377.1,370.2z"/>
	<path d="M381.4,343.5c4.2,0,4.2-6.6,0-6.6C377.1,336.9,377.1,343.5,381.4,343.5z"/>
	<path d="M373.5,309.8c4.2,0,4.2-6.6,0-6.6C369.3,303.2,369.3,309.8,373.5,309.8z"/>
	<path d="M349.8,281.3c-4.2,0-4.2,6.6,0,6.6C354,287.9,354,281.3,349.8,281.3z"/>
	<path d="M319,279.6c4.2,0,4.2-6.6,0-6.6C314.8,273.1,314.8,279.6,319,279.6z"/>
	<path d="M287.1,284.7c4.2,0,4.2-6.6,0-6.6C282.9,278.1,282.8,284.7,287.1,284.7z"/>
	<path d="M258.8,303.2c4.2,0,4.2-6.6,0-6.6C254.5,296.6,254.5,303.2,258.8,303.2z"/>
	<path d="M589.1,335.6c4.2,0,4.2-6.6,0-6.6C584.8,329,584.9,335.6,589.1,335.6z"/>
	<path d="M587.8,404.9c-0.6-0.6-1.5-0.9-2.3-1h-0.4c-0.9,0-1.7,0.4-2.3,1c-1.3,1.3-1.3,3.4,0,4.6l0,0c0.6,0.6,1.5,0.9,2.3,1h0.4
		c0.9,0,1.7-0.4,2.3-1C589.1,408.3,589.1,406.2,587.8,404.9L587.8,404.9z"/>
	<path d="M559,426.9c-4.2,0-4.2,6.6,0,6.6C563.2,433.5,563.2,426.9,559,426.9z"/>
	<path d="M525.6,432.6c-0.9,0-1.7,0.4-2.3,1c-1.3,1.3-1.3,3.4,0,4.6l0,0c0.6,0.6,1.5,0.9,2.3,1h0.4c0.9,0,1.7-0.4,2.3-1
		c1.3-1.3,1.3-3.4,0-4.6c-0.6-0.6-1.5-0.9-2.3-1H525.6z"/>
	<path d="M491.9,429.1c4.2,0,4.2-6.6,0-6.6C487.7,422.6,487.7,429.1,491.9,429.1z"/>
	<path d="M467.2,400.4c-4.2,0-4.2,6.6,0,6.6C471.4,406.9,471.4,400.4,467.2,400.4z"/>
	<path d="M458.6,309.8c4.2,0,4.2-6.6,0-6.6C454.3,303.2,454.3,309.8,458.6,309.8z"/>
	<path d="M482.2,287.9c4.2,0,4.2-6.6,0-6.6C478,281.3,478,287.9,482.2,287.9z"/>
	<path d="M513.1,279.6c4.2,0,4.2-6.6,0-6.6C508.8,273.1,508.8,279.6,513.1,279.6z"/>
	<path d="M545,278.1c-4.2,0-4.2,6.6,0,6.6C549.2,284.7,549.2,278.1,545,278.1z"/>
	<path d="M573.3,303.2c4.2,0,4.2-6.6,0-6.6C569.1,296.6,569.1,303.2,573.3,303.2z"/>
	<path d="M376.3,395.3c-0.8-2.7-2-5.2-3.7-7.4c2.2-0.2,4.3-0.9,6.3-2c7.4-3.8,10.3-12.8,6.6-20.2c-0.3-0.5-0.5-1-0.9-1.5
		c-0.9-1.5-2-2.8-3.3-3.9c3.9-0.8,7.3-3,9.7-6.1c5.1-6.6,4.5-17.9,0.7-24c-2.5-3.6-6.3-6.1-10.6-7c3.5-3.1,5.8-7.3,6.6-11.9
		c1.1-7.1-3.3-14.9-10.1-17.8c-4.9-2.1-10.5-1.9-15.3,0.5c1.8-6.6,1-13.6-4.2-17.5c-4.1-2.9-9.3-3.8-14.2-2.4
		c-3.1,0.9-5.8,2.6-8,4.9c-0.6-3-1.9-5.8-3.9-8.1c-3.1-3.7-7.6-5.9-12.4-5.9c0,0-0.1,0-0.1,0c-5,0.2-9.6,2.5-12.7,6.4
		c-1.1,1.4-2.1,2.9-2.8,4.5c-2.5-3.8-6.4-6.4-10.8-7.5c-6.6-1.9-15.8,2.2-19.1,8.5c-1.6,3.3-2.2,7-1.7,10.7
		c-2.1-1.1-4.3-1.8-6.6-2.1c-6.5-0.9-13.2,1.1-17,5.2c-3.7,3.9-5.6,9.4-4.9,14.8c0.4,3.3,1.5,6.4,3.4,9.2c-3.1-0.1-6.2,0.6-9.1,1.8
		c-9.5,3.7-14.2,14.4-10.5,23.9c0.7,1.8,1.7,3.6,3,5.1c1.7,2.3,4,4.3,6.5,5.7c-2.9,1.3-5.6,3.3-7.7,5.7c-3.7,4.4-5.5,10.1-4.8,15.7
		c0.5,5.6,3.5,10.7,8.3,13.6c2.2,1.4,4.7,2.3,7.4,2.8c-2.7,1.9-4.8,4.4-6.3,7.3c-4.5,8.9-1.7,19.1,6.5,23.7
		c5.9,3.3,12.5,2.7,18.1,0.3c-2.1,4.6-2.7,8.8-0.9,13.8c2.5,6.9,10.9,11.3,18.9,10c4.1-0.7,8.7-3.9,11.8-8.5c0.8,2.3,2,4.4,3.6,6.2
		c7.3,7.6,19.4,7.8,27,0.5c0.2-0.2,0.3-0.3,0.5-0.5c2.4-2.7,4.1-6,4.7-9.5c6.1,5.6,15.3,8.6,22.1,4.7c6.6-4.2,9.5-12.2,7.3-19.6
		c8.6,2.3,15.7,0.1,20.1-6.4C376.8,406.3,377.8,400.6,376.3,395.3z M382.4,375.2L382.4,375.2c-0.9,2.9-2.9,5.4-5.6,6.8
		c-2.5,1.4-5.3,1.9-8.1,1.3c2.7-7.1,4.6-14.4,5.8-21.9c2.7,0.9,5,2.7,6.4,5.1C382.5,369.1,383.1,372.2,382.4,375.2z M388,332.5
		c3,4.7,3.4,14-0.4,19v0c-2.6,3.3-6.2,4.9-12.4,5.3c1.4-9.7,1.2-19.6-0.6-29.3c0.2-0.1,0.3-0.1,0.5-0.2
		C379.5,326.3,385.8,329,388,332.5z M375.8,297.5L375.8,297.5c4.9,2.1,8.3,8,7.5,13.1c-1.1,5.5-4.7,10.1-9.7,12.5
		c-2.2-8.6-6.5-16.6-12.6-23c-0.1-0.1-0.1-0.1-0.2-0.2C365.7,296.4,371,295.5,375.8,297.5z M344.9,278.3c3.5-1,7.3-0.4,10.4,1.7
		c4.8,3.6,3.7,11,1.4,16.3c-6-4.8-13-8.3-20.4-10.2C337.9,282.4,341.1,279.5,344.9,278.3z M335.3,316.3l19,18.1l-27.3,4.7
		L335.3,316.3z M309.9,274.2c2.3-2.9,5.7-4.7,9.4-4.8c3.6,0,6.9,1.6,9.2,4.4c2.6,3.1,3.7,7.2,3.2,11.2c-7.9-1.5-16-1.8-24.1-0.9
		c-0.3,0-0.5,0.1-0.7,0.1C306.4,280.6,307.5,277,309.9,274.2z M331.1,314.6l-8.3,23l-16.2-18.8L331.1,314.6z M305.3,324.3l14,16.3
		l-21.5,3.7L305.3,324.3z M293.7,342.2l-12.6-19l21.1-3.6L293.7,342.2z M277.8,278.9c2.3-4.5,9.3-7.6,14-6.3
		c6.2,1.8,9.5,5.6,10.8,12.2c-8.5,1.2-16.8,3.8-24.6,7.7C276,288,275.9,282.7,277.8,278.9z M277.5,325.9l13,19.6l-29.5,5.1
		C268,340.4,275.4,329.5,277.5,325.9z M251.8,293.6c2.8-3.1,8-4.5,13.2-3.8c3.5,0.4,6.8,2.1,9.1,4.9c-8.5,5.1-15.4,12.4-20.1,21.2
		c-3.3-2.8-5.5-6.7-6-11C247.5,300.8,248.9,296.6,251.8,293.6z M233.9,342.8L233.9,342.8c-5.1-5.9-4.4-14.8,1.6-19.9
		c1.2-1.1,2.7-1.9,4.2-2.5c3.9-1.8,8.3-2,12.3-0.4c-3.6,8.3-5.7,18.1-6.2,29.1c-0.1,0-0.3-0.1-0.5-0.1
		C240.8,348.8,236.6,346.5,233.9,342.8z M235.1,382.5L235.1,382.5c-3.6-2.2-6-6.1-6.3-10.3c-0.5-4.5,0.8-9,3.8-12.5
		c3.3-3.7,7.9-5.9,12.8-6.2c0.1,0,0.2,0,0.3,0c0,3.3,0.1,6.6,0.3,10.1c0.4,6.9,1.4,13.8,3,20.6C244.3,385.6,239.3,385,235.1,382.5z
		 M242.5,416.1c-6.2-3.4-8.2-11.1-4.7-17.9c2.5-4.9,6.2-6.7,11.3-9.2c0.4-0.2,0.7-0.4,1.1-0.6c2.8,9.8,6.9,17.9,12.4,24.3
		C257.2,417.1,249.1,419.8,242.5,416.1z M275.8,439.8L275.8,439.8c-2.9,0.4-5.9,0-8.5-1.4c-2.5-1.2-4.5-3.3-5.6-5.9
		c-1.9-5.2-0.2-9.3,4-16.4c5.9,5.8,13.2,9.9,21.2,12.1C285.4,433.4,280.8,439,275.8,439.8z M260.5,355.3l32.3-5.6l23.5,58.2
		L260.5,355.3z M316.2,438.8c-2.7,2.9-6.5,4.5-10.5,4.4c-4,0.1-7.8-1.5-10.5-4.4c-2.3-2.6-3.6-6-3.7-9.5c4.2,0.8,8.4,1.1,12.7,1.1
		c5.4,0,10.7-0.6,16-1.8C320.1,432.4,318.7,436,316.2,438.8z M317.6,398.9l-20.2-50l23.7-4.1L317.6,398.9z M321.7,406.5l4.1-62.5
		l30.2-5.2L321.7,406.5z M349.8,423.8L349.8,423.8c-0.4,3.8-2.5,7.2-5.8,9.3c-4.7,2.7-13.4,0.6-18.7-5.9c8.1-2.6,15.5-6.7,22-12.3
		C349.4,417.4,350.3,420.6,349.8,423.8z M370,408.4L370,408.4c-5,7.5-13.6,5.6-19.1,3.3c0,0,0,0,0.1-0.1c6.7-6.9,12.1-15,15.9-23.8
		C375.9,397,372.1,405.2,370,408.4z"/>
	<path d="M595.1,351.1c2.5-1.4,4.7-3.4,6.5-5.7c6.5-7.8,5.4-19.5-2.4-26c-1.5-1.3-3.2-2.3-5.1-3c-2.9-1.3-5.9-1.9-9.1-1.8
		c1.8-2.8,3-5.9,3.4-9.2c0.6-5.4-1.2-10.8-4.9-14.8c-3.8-4.1-10.5-6.1-17-5.2c-2.3,0.3-4.5,1-6.6,2.1c0.5-3.6-0.1-7.3-1.7-10.7
		c-3.2-6.3-12.5-10.4-19.1-8.5c-4.4,1.1-8.2,3.8-10.8,7.5c-0.7-1.6-1.6-3.2-2.8-4.5c-3.1-3.9-7.8-6.2-12.7-6.4c0,0-0.1,0-0.1,0
		c-4.8,0-9.4,2.2-12.4,5.9c-2,2.3-3.3,5.1-3.9,8.1c-2.1-2.3-4.9-4.1-8-4.9c-4.9-1.4-10.1-0.5-14.2,2.4c-5.2,3.9-6,10.9-4.2,17.5
		c-4.8-2.4-10.4-2.6-15.3-0.5c-6.8,2.9-11.2,10.7-10.1,17.8c0.8,4.6,3.1,8.8,6.6,11.9c-4.3,0.8-8.2,3.3-10.6,7
		c-3.8,6-4.4,17.4,0.7,24c2.4,3.1,5.9,5.3,9.7,6.1c-1.3,1.1-2.4,2.4-3.3,3.9c-4.6,6.9-2.7,16.2,4.2,20.8c0.5,0.3,1,0.6,1.5,0.9
		c1.9,1.1,4.1,1.8,6.3,2c-1.7,2.2-2.9,4.7-3.7,7.4c-1.5,5.3-0.5,11.1,2.7,15.6c4.4,6.5,11.5,8.7,20.1,6.4
		c-2.2,7.4,0.8,15.5,7.3,19.6c6.8,3.9,16,1,22.1-4.7c0.7,3.5,2.3,6.8,4.7,9.5c7.3,7.6,19.4,7.8,27,0.5c0.2-0.2,0.3-0.3,0.5-0.5
		c1.6-1.8,2.8-3.9,3.6-6.2c3.1,4.6,7.7,7.9,11.8,8.5c8.1,1.3,16.4-3.1,18.9-10c1.8-5,1.1-9.2-0.9-13.8c5.6,2.4,12.3,2.9,18.1-0.3
		c8.3-4.6,11.1-14.8,6.5-23.7c-1.5-2.9-3.6-5.4-6.3-7.3c2.6-0.4,5.1-1.4,7.4-2.8c4.8-3,7.9-8,8.3-13.6c0.6-5.7-1.1-11.4-4.8-15.7
		C600.7,354.4,598,352.4,595.1,351.1z M592.3,320.4L592.3,320.4c7.5,3.6,10.7,12.6,7.1,20.1c-2.4,4.9-7.2,8.2-12.7,8.5
		c-0.2,0-0.3,0-0.5,0.1c-0.5-11-2.6-20.8-6.2-29.1C584,318.5,588.5,318.6,592.3,320.4z M567.1,289.8L567.1,289.8
		c5.2-0.7,10.3,0.7,13.2,3.8c2.9,3,4.3,7.2,3.8,11.3c-0.5,4.3-2.7,8.2-6,11c-4.6-8.8-11.5-16.1-20.1-21.2
		C560.3,292,563.5,290.2,567.1,289.8z M570.8,350.2l-28.8-5l12.7-19.2C556.8,329.7,563.9,340.2,570.8,350.2z M538.6,341.8l-8.3-22.1
		l20.6,3.5L538.6,341.8z M540.2,272.6c4.6-1.3,11.7,1.8,14,6.3c1.9,3.7,1.8,9.1-0.2,13.6c-7.7-3.8-16-6.4-24.6-7.7
		C530.7,278.2,534.1,274.4,540.2,272.6z M526.7,325.6l7.2,19.3l-20.7-3.6L526.7,325.6z M509,337.2l-8.2-22.5l24,4.1L509,337.2z
		 M503.5,273.8L503.5,273.8c2.2-2.7,5.6-4.3,9.1-4.4c0,0,0.1,0,0.1,0c7.4,0.5,13,6.9,12.5,14.3c0,0.2,0,0.4,0,0.5
		c-0.2,0-0.5-0.1-0.7-0.1c-8-0.9-16.1-0.7-24.1,0.9C499.8,281,500.9,276.9,503.5,273.8z M496.6,316.5l8.1,22.3l-26.5-4.6
		L496.6,316.5z M476.8,280.1L476.8,280.1c3-2.1,6.8-2.8,10.4-1.7c3.9,1.2,7,4,8.6,7.7c-7.4,2-14.4,5.4-20.4,10.2
		C473,291,471.9,283.7,476.8,280.1z M448.8,310.7L448.8,310.7c-0.8-5.1,2.6-11,7.5-13.1c4.7-2,10.1-1.1,15.1,2.4
		c-0.1,0.1-0.1,0.1-0.2,0.2c-6.1,6.5-10.5,14.4-12.6,23C453.4,320.8,449.8,316.1,448.8,310.7z M444.5,351.5c-3.8-5-3.4-14.3-0.4-19
		c2.2-3.5,8.5-6.2,13-5.2c0.1,0.1,0.3,0.1,0.5,0.2c-1.7,9.7-1.9,19.6-0.6,29.3C450.7,356.4,447.1,354.8,444.5,351.5z M455.3,382.1
		L455.3,382.1c-5.3-2.6-7.4-9-4.8-14.3c0.2-0.4,0.5-0.9,0.8-1.3c1.4-2.4,3.7-4.2,6.4-5.1c1.2,7.5,3.1,14.8,5.8,21.9
		C460.6,383.9,457.7,383.5,455.3,382.1z M462.1,408.4L462.1,408.4c-2.1-3.2-5.9-11.4,3.1-20.6c3.8,8.9,9.2,16.9,15.9,23.8
		c0,0,0,0,0.1,0.1C475.7,414,467.1,415.9,462.1,408.4z M488,433.1L488,433.1c-3.2-2.1-5.4-5.5-5.8-9.3c-0.5-3.2,0.4-6.4,2.5-8.8
		c6.4,5.5,13.9,9.7,22,12.3C501.4,433.8,492.7,435.8,488,433.1z M475.9,338.4l30,5.2l4,62.1L475.9,338.4z M534.3,349.4l-19.5,48.2
		l-3.4-52.1L534.3,349.4z M536.9,438.8L536.9,438.8c-2.7,2.9-6.5,4.5-10.5,4.4c-4,0.1-7.8-1.5-10.5-4.4c-2.5-2.8-3.9-6.4-3.9-10.1
		c5.2,1.2,10.6,1.8,16,1.8c4.3,0,8.5-0.4,12.7-1.1C540.5,432.8,539.2,436.2,536.9,438.8z M516,407.6l23.5-58.2l32.3,5.6L516,407.6z
		 M570.4,432.6L570.4,432.6c-1,2.6-3,4.7-5.6,5.9c-2.6,1.3-5.6,1.8-8.5,1.4c-5.1-0.8-9.6-6.4-11-11.5c8-2.1,15.3-6.3,21.2-12.1
		C570.6,423.2,572.3,427.3,570.4,432.6z M594.3,398.2L594.3,398.2c3.5,6.8,1.4,14.5-4.7,17.9c-6.7,3.7-14.7,1-20-3.4
		c5.4-6.4,9.5-14.5,12.4-24.3c0.4,0.2,0.7,0.4,1.1,0.6C588.2,391.5,591.8,393.4,594.3,398.2z M603.2,372.2L603.2,372.2
		c-0.3,4.3-2.7,8.1-6.3,10.3c-4.2,2.6-9.2,3.1-13.9,1.6c1.6-6.8,2.6-13.6,3-20.6c0.2-3.5,0.3-6.8,0.3-10.1c0.1,0,0.2,0,0.3,0
		c4.9,0.3,9.5,2.5,12.8,6.2C602.4,363.1,603.8,367.6,603.2,372.2z"/>
	<path d="M593.4,368.5H593c-0.9,0-1.7,0.4-2.3,1c0,0,0,0,0,0c-1.3,1.3-1.3,3.4,0,4.6c0.6,0.6,1.5,0.9,2.3,1h0.4c0.9,0,1.7-0.4,2.3-1
		c0,0,0,0,0,0c1.3-1.3,1.3-3.4,0-4.6C595.1,368.8,594.2,368.5,593.4,368.5z"/>
	<path d="M450.7,336.9c-4.2,0-4.2,6.6,0,6.6C454.9,343.5,454.9,336.9,450.7,336.9z"/>
	<path d="M198.6,200.6c-0.1-0.3-0.4-0.5-0.7-0.5c-0.3,0-0.6,0.2-0.7,0.4l-6.1,14.3c-0.1,0.2-0.1,0.4,0,0.6l6.1,14.3
		c0.1,0.3,0.4,0.4,0.7,0.4h0c0.3,0,0.6-0.2,0.7-0.5l5.5-14.3c0.1-0.2,0.1-0.4,0-0.5L198.6,200.6z"/>
	<path d="M180.4,203.3c-0.1-0.3-0.4-0.5-0.7-0.5c-0.3,0-0.6,0.2-0.7,0.4l-4.9,11.6c-0.1,0.2-0.1,0.4,0,0.6l4.9,11.6
		c0.1,0.3,0.4,0.4,0.7,0.4h0c0.3,0,0.6-0.2,0.7-0.5l4.5-11.6c0.1-0.2,0.1-0.4,0-0.5L180.4,203.3z"/>
	<path d="M167,207c-0.1-0.3-0.4-0.5-0.7-0.5h0c-0.3,0-0.6,0.2-0.7,0.4l-3.4,7.9c-0.1,0.2-0.1,0.4,0,0.6l3.4,7.9
		c0.1,0.3,0.4,0.4,0.7,0.4h0c0.3,0,0.6-0.2,0.7-0.5l3-7.9c0.1-0.2,0.1-0.4,0-0.5L167,207z"/>
	<path d="M630.6,200.6c-0.1-0.3-0.4-0.4-0.7-0.4h0c-0.3,0-0.6,0.2-0.7,0.5l-5.5,14.3c-0.1,0.2-0.1,0.4,0,0.5l5.5,14.3
		c0.1,0.3,0.4,0.5,0.7,0.5h0c0.3,0,0.6-0.2,0.7-0.4l6.1-14.3c0.1-0.2,0.1-0.4,0-0.6L630.6,200.6z"/>
	<path d="M648.9,203.2c-0.1-0.3-0.4-0.4-0.7-0.4h0c-0.3,0-0.6,0.2-0.7,0.5l-4.5,11.6c-0.1,0.2-0.1,0.4,0,0.5l4.5,11.6
		c0.1,0.3,0.4,0.5,0.7,0.5h0c0.3,0,0.6-0.2,0.7-0.4l4.9-11.6c0.1-0.2,0.1-0.4,0-0.6L648.9,203.2z"/>
	<path d="M662.2,207c-0.1-0.3-0.4-0.4-0.7-0.4c-0.3,0-0.6,0.2-0.7,0.5l-3,7.9c-0.1,0.2-0.1,0.4,0,0.5l3,7.9c0.1,0.3,0.4,0.5,0.7,0.5
		h0c0.3,0,0.6-0.2,0.7-0.4l3.4-7.9c0.1-0.2,0.1-0.4,0-0.6L662.2,207z"/>
	<path d="M615.7,213.4L615.7,213.4c-11.9-4.1-19.2-16.3-25.6-28.5c-5.2-9.9-10.7-19.3-18.4-25.5l3.5,0.4c1.2,0.1,2.3-0.7,2.4-1.9
		c0.1-1.1-0.6-2.1-1.6-2.4c-3.9-1-6.4-4.7-9-8.6c-0.5-0.8-1.1-1.6-1.6-2.4c-7.9-11-20.1-18.1-33.6-19.5c-13.8-1.3-24,1.7-32.8,9.7
		c-4-3.8-9.4-6.5-15.1-5.8c-2.3-5.1-3.7-10.2-3.1-15.5c0.1-1.2-0.7-2.3-1.9-2.4c-0.2,0-0.4,0-0.6,0c-3.4,0.6-6.9-0.1-10.5-1.1
		c-2.3-6.9-9.5-10.9-14.4-13.7c-5.7-3.2-11.2-6.9-12.1-12.3c-0.2-1.2-1.3-2-2.5-1.8c-0.5,0.1-1,0.3-1.3,0.7
		c-4.2,4.9-11.5,5.7-16.8,5.5c-2.4-0.1-4.9-0.3-7.4-0.6c-4.3-0.6-8.7-0.7-13.1-0.4c-4.4,0.4-9.6,2.4-12.1,6.3
		c-3.1-4.4-8.7-6.1-13.4-6.2c-3.6,0.1-7.2,0.6-10.6,1.5c-1.4,0.3-2.9,0.6-4.4,0.9c-6.4,1.1-13,0.9-19.4-0.5
		c-1.2-0.3-2.3,0.5-2.6,1.7c0,0.1,0,0.1,0,0.2c-0.7,5.4-3.4,10.5-5.8,15.1c-2.7,5.2-5.6,10.5-6.4,16.5c-0.6,4.5,0,10.1,3.2,14.4
		c-18.9-17.5-48.5-16.4-66,2.5c-1.4,1.5-2.7,3.1-3.8,4.7c-0.5,0.8-1.1,1.6-1.6,2.4c-2.7,3.9-5.2,7.7-9,8.6c-1.2,0.3-1.9,1.5-1.6,2.7
		c0.3,1.1,1.3,1.8,2.4,1.6l3.5-0.4c-7.7,6.2-13.1,15.6-18.4,25.5c-6.4,12.2-13.7,24.4-25.6,28.5c-1.1,0.4-1.7,1.6-1.4,2.8
		c0.2,0.5,0.5,0.9,1,1.2c14.8,8.4,28.3,12.7,41.3,13.2c12.5,0.4,24.4-3.1,33.4-9.7c-1.2,3.4-2.4,6.7-3.6,10.1
		c-0.4,1.1,0.2,2.4,1.3,2.8c0.5,0.2,1.1,0.2,1.5,0c7.1-2.9,14-6.2,20.7-9.9c5.3-2.9,10.6-6.4,13.6-11.4c0,0,0,0,0,0
		c6,10.4,17.2,17.2,28.7,17.4c0.1,0,0.3,0,0.4,0c3.6-0.1,7.2-0.6,10.8-1.5c-1.1,5.6,1.6,12.9,8.9,17.3c4.4,2.7,9.4,3.9,14.3,5.1
		c1.9,0.5,3.8,0.9,5.7,1.5c8.8,2.6,26.9,11.1,28.5,15.9c0.3,0.9,1.1,1.5,2,1.5c0,0,0,0,0.1,0c0.9,0,1.7-0.6,2-1.4
		c2.8-7.4,14.3-11.3,23.5-14.5c3.2-1,6.3-2.2,9.4-3.7c9.4-5,15.8-13.7,16.6-22.7c0-0.3,0-0.6-0.1-1c0.3-0.2,0.6-0.4,0.8-0.6
		c3,2.6,6.9,4,10.8,3.9c3,0,5.9-0.7,8.5-1.9c5.5-2.6,10.2-7.7,13.9-15c0.8-1.5,1.5-3.1,2.2-4.6c4.6,6.4,13.6,13.4,18.1,15.9
		c6.7,3.7,13.6,7,20.7,9.9c1.1,0.5,2.4-0.1,2.8-1.2c0.2-0.5,0.2-1,0-1.5c-1.2-3.3-2.4-6.7-3.6-10.1c9,6.6,20.9,10.2,33.4,9.7
		c13-0.4,26.5-4.8,41.3-13.2c1-0.6,1.4-1.9,0.8-3C616.6,213.9,616.2,213.6,615.7,213.4z M604.3,211.9c-11.4-1.2-23.4-5.8-35.9-13.7
		c-6.5-4.2-12.8-8.8-18.8-13.8c5.1,0,10.3,1.3,15.7,2.7c5.5,1.4,11.1,2.8,16.8,2.8c1.8,0,3.6-0.2,5.4-0.5
		C592.2,197.9,597.3,206.2,604.3,211.9z M585.4,185.3L585.4,185.3c-6.1,0.7-12.4-0.8-19-2.5c-7-1.8-14.3-3.6-21.7-2.4
		c-0.7-0.6-1.4-1.1-2.1-1.7c-3-2.5-6.2-5-9.3-7.5c-4.3-3.4-9-6.3-13.9-8.8c13.6-3.6,27.7-5,41.7-4.2
		C572.2,162.4,579,173.3,585.4,185.3z M531.4,129.3L531.4,129.3c12.2,1.2,23.3,7.7,30.5,17.6c0.5,0.7,1,1.5,1.6,2.3
		c1.2,1.8,2.5,3.6,3.8,5.2l-5.3-0.6c0,0-0.1,0-0.1,0c0,0,0,0-0.1,0c-17.9-0.8-32.4,1-48.5,5.8c-0.2,0.1-0.4,0.1-0.5,0.2
		c-0.8-0.2-1.6-0.4-2.4-0.5c-0.1,0-0.3,0-0.4,0c-0.3-1.2-0.7-2.4-1-3.6c-1.5-5.5-3-11.2-6.1-16.3c-0.3-0.5-0.6-1-1-1.5
		C509.8,130.7,518.7,128.1,531.4,129.3z M400.6,91.6c4.1-0.3,8.2-0.1,12.2,0.4c2.5,0.3,5.1,0.5,7.7,0.6c5.3,0.2,12.3-0.6,17.5-4.5
		c2.4,5.2,7.7,8.8,13.2,11.8c4.4,2.5,8.5,5,10.9,8.3c-0.8-0.2-1.6-0.4-2.4-0.6c-6.1-1.3-14.2-0.8-18.6,4.3c-0.3-0.2-0.5-0.5-0.8-0.7
		c-2.6-2-5.8-3.1-9.1-3c0.8-1.5,1.5-3,2.3-4.5c1.1-2.1-2.1-3.9-3.1-1.8l-3.2,6.4c-3.3-4.4-8.1-7.4-13.6-8.3
		c-2.9-0.4-5.9-0.4-8.8-0.2c-1.9,0.1-3.6,0.2-5.3,0.1c-2.8-0.1-6.1-0.9-8.2-2.7C392.1,94,396.5,92,400.6,91.6z M388,100.4
		c2.6,2.4,6.5,3.9,11.2,4.1c2,0.1,3.9,0,5.8-0.1c2.6-0.2,5.3-0.2,7.9,0.1c5,0.9,9.3,3.9,11.8,8.2c0.5,0.8,1.5,1.3,2.4,1
		c0.6,0.2,1.3,0,1.7-0.6c3-0.9,6.4-0.3,8.9,1.6c2.9,2.4,4.8,5.8,5.4,9.5c-2.2-1.5-4.7-2.3-7.3-2.6c-3.1-0.3-6.3,0.5-8.7,2.5
		c-2.1-2.6-4.7-4.7-7.7-6.1c-4.8-2.5-10.3-3-15.4-1.3c-5.1,1.8-8.8,6-11.8,10.1c-0.7-3.2-1.4-6.3-2.1-9.5c-0.5-2.3-4-1.3-3.5,1
		c0.6,2.8,1.2,5.6,1.9,8.5c-3.8-1.7-8.2-1.9-12.2-0.7c-4.9,1.6-9,5.1-11.3,9.7c-2.3,4.4-2.6,9.2-0.9,13c0.3,0.6,0.6,1.2,1,1.8
		c-0.4,0.6-0.6,1.3-0.4,2c1.6,5.3,1.1,10.8,0.2,16.7c-2.2-3.9-4.8-7.5-7.6-10.9l-0.5-0.7c-4.4-5.5-8.7-11.5-9.1-18.2
		c0-0.6,0-1.2,0-1.7c0.3-0.5,0.3-1,0.2-1.5c0.5-2.6,1.7-5,3.6-6.8c1.6-1.7,3.9-2.7,6.3-2.6c1.2,0.1,2.2-0.8,2.3-2
		c0-0.4-0.1-0.8-0.3-1.2c-1.8-3.3,0.5-8,3.9-10.3c2.7-1.9,5.9-2.8,9.4-3.9c1.4-0.4,2.9-0.9,4.4-1.4
		C382.2,106.2,385.9,103.6,388,100.4z M446.9,149.3c0.5,2.2,1.2,4.4,2.1,6.5c0.3,0.7,0.6,1.4,0.8,2.1c2.1,5.6,2.6,10.6,1.6,14.7
		c-1.3,4.8-5.1,8.6-9.2,9.2c-0.5,0.1-1.1,0.1-1.7,0.1c-1.6,0-3.2,0.3-4.7,0.9c-2.2,1-3.5,2.9-4.7,4.6c-0.6,1-1.3,1.9-2.1,2.6
		c-1.4,1-3,1.7-4.7,2.2c-0.5,0.2-1.1,0.3-1.6,0.5c-6.4,2.3-11.5,6.7-14.1,12.1c-0.6,1.3-1.1,2.8-1.3,4.3c0,0,0,0,0,0
		c0.2-5.4,3.4-10.2,6.1-13.2c2.6-2.8,5.4-5.4,8.3-7.7c1.2-1,2.4-2,3.6-3c8.7-7.7,13.9-15.2,15.8-23.2c2.3-9.2-2.2-20.3-10.3-25.7
		c0.2-2.5-0.2-5-1.1-7.3c-0.1-0.3-0.2-0.6-0.4-0.8c1.4-1.6,3.9-2.1,6-1.9c4.7,0.5,8.7,3.7,10.3,8.2c0.7,2.5,0.9,5.2,0.8,7.8
		C446.3,144.5,446.5,146.9,446.9,149.3z M465.7,184c0,0.8,0,1.6,0,2.3c-0.3,5.9-3.2,12.1-8.3,17.4c-1.7,1.9-3.7,3.4-5.9,4.7
		c-4.4,2.4-9.5,3.2-14.4,3.8c-7.9,1-16.4,8.5-18.5,14.5c-1.6-2-2.3-4.7-2.2-8.3c0.1-4.9,4-8.4,8.2-12h0l0.3-0.2
		c1.6-1.4,3.4-2.7,5.2-3.9c1.7-1.1,3.4-2.3,5-3.7c3.2-2.7,5.9-7.9,6.6-12.5c0.4,0,0.8-0.1,1.2-0.1c4.5-0.7,8.4-3.4,10.7-7.4
		c2.9-1,6-1.6,9-1.6c2.3,0,2.3-3.7,0-3.6c-2.4,0-4.8,0.3-7.1,0.8c0.1-0.2,0.1-0.4,0.2-0.7c1.3-5.1,0.7-10.9-1.7-17.4
		c-0.3-0.7-0.6-1.5-0.9-2.2c-0.8-1.8-1.5-3.8-1.9-5.7c-0.4-2.1-0.5-4.3-0.5-6.4c0.1-3.1-0.2-6.1-1-9.1c-0.5-1.6-1.3-3.1-2.3-4.5
		c0,0,0,0,0-0.1c0,0,0-0.1,0-0.1c3.9-0.3,11.8,2.6,14.7,5.2c10.8,9.7,9.7,30.7,8.2,35c-0.5,1.3-1.1,2.6-1.7,3.8
		C466.5,175.8,465.5,179.9,465.7,184z M449,214.2c-0.8,2.1-2.7,3.8-5.6,6c-3.7,2.9-9.4,4.7-14.9,6.5c-2.1,0.7-4.1,1.3-6,2h0
		c0.1-0.5,0.3-0.9,0.5-1.3c2.2-4.6,8.7-10.1,14.5-10.8C441.5,216.1,445.3,215.4,449,214.2z M412.2,216L412.2,216
		c-1.1-3-1-6.3,0.2-9.3c2.1-4.4,6.3-8,11.6-9.9c0.5-0.2,1-0.3,1.5-0.5c2.2-0.6,4.3-1.6,6.2-3c1.1-1,2.1-2.2,2.9-3.5
		c0.6-1,1.4-1.9,2.3-2.7c-0.8,3.1-2.5,5.9-4.7,8.1c-1.4,1.2-3,2.3-4.6,3.4c-1.9,1.3-3.8,2.7-5.6,4.2l-0.3,0.2
		C417.5,206.8,413.3,210.5,412.2,216z M404.9,217.3c-1.6-0.4-3.3-0.8-5-1.1c-4.5-0.9-9-2.1-13.4-3.6c-6.3-2.3-14.5-6.7-17.9-14.5
		c-2.6-5.9-2.1-12.3-1-19.1c0.2-0.4,0.3-0.9,0.2-1.4c0.2-0.9,0.3-1.9,0.5-2.8c1-5,1.6-10.1,1.6-15.2c0.2,0.8,0.4,1.5,0.7,2.3
		c0.5,2.3,1.3,4.6,2.4,6.7c2.7,5.1,7.6,8.7,13.4,9.7c4,0.6,7.9-0.1,11.7-0.8c3.6-0.7,7.1-1.3,10.4-0.8c5.3,0.9,9.2,3.9,10.6,8.1
		l-0.1,0.1c-3.1,2.5-6.1,5.2-8.8,8.2c-3.2,3.6-7,9.2-7.2,16C402.8,211.9,403.5,214.8,404.9,217.3z M351.2,176.1
		c3.8-0.7,7.7-0.6,11.5,0.2c0.1,0,0.2,0,0.3,0c0.1,0.5,0.3,0.9,0.4,1.4c-1.2,7.5-1.9,15.1,1.3,22.2c4.1,9.2,13.4,14.2,20.4,16.8
		c2.8,1,5.6,1.8,8.5,2.5c-2.5,0.2-5,0.5-7.5,0.7c-3.9,0.4-7.9,0.9-11.9,1c-2.2,0.1-4.3,0-6.5-0.1c-0.4-0.2-0.8-0.2-1.3-0.1
		c-2-0.2-4-0.7-5.9-1.3c-9-3.2-15.9-12.2-17.1-22.5c-0.2-1.9-0.3-3.8-0.3-5.9c0-3.3-0.3-6.6-1-9.8c-0.9-3-2-5.9-3.5-8.7
		c-1.1-2.1-2.1-4.3-2.9-6.6c-2.5-8,0.1-17.4,5.9-23.4c0.7-0.1,1.3-0.6,1.6-1.3c0.9,7.4,5.6,13.8,9.9,19.3l0.5,0.7
		c3,3.5,5.6,7.3,7.7,11.3c-3.7-0.6-7.5-0.5-11.2,0.2C347.9,173,348.9,176.5,351.2,176.1z M413.4,141.8c1.1,0.4,2.4-0.2,2.8-1.3
		c0,0,0,0,0,0c1.1-3.2-0.6-6.7-3.8-7.7c-3.2-1.1-6.7,0.6-7.7,3.8c0,0.1,0,0.1,0,0.2c-0.6,2.4,0,5,1.6,6.9c2.6,3.3,6.5,5.2,10.7,5.2
		c0.1,0,0.2,0,0.3,0c5.4,0.2,10.4-3,12.5-8c5.7,4.7,8.9,13.2,7.2,20c-1.6,6.4-5.6,12.6-12.3,19c0.9-5.2,0.9-11.1-3.9-13.9
		c-3.6-2.1-7.7-2.6-11.7-3c-1.4-0.2-2.7-0.3-4.1-0.5c-7.8-1.3-16.2-6.8-17.1-14.6c-0.6-5.8,2.8-11.6,6.7-17c3-4.1,6.2-8.3,10.8-9.9
		c4-1.2,8.3-0.8,12,1.1c3.7,1.7,6.7,4.7,8.3,8.4c1.5,3.6,1,7.7-1.2,10.8c-3.6,4-9.8,4.3-13.8,0.6c-0.3-0.3-0.6-0.6-0.8-0.9
		c-0.8-0.8-1.1-2-0.9-3.1c0.3-0.9,1.3-1.4,2.2-1.1c0.9,0.3,1.3,1.2,1.1,2.1C411.6,140.2,412.2,141.4,413.4,141.8z M388.5,131.9
		c-2.2,3.2-3.8,6.8-4.7,10.5c-2.3-0.7-4.8-0.9-7.2-0.4c-2.3,0.4-1.3,3.9,1,3.5c2-0.4,4-0.2,5.9,0.6c0,0.7,0,1.4,0.1,2.2
		c1.2,10.5,11.6,16.9,20.7,18.5c1.4,0.2,2.9,0.4,4.3,0.6c3.7,0.4,7.1,0.8,10,2.4c2.3,1.3,2.4,5,1.9,8.6c-2.9-3.3-6.9-5.5-11.2-6.1
		c-4.1-0.7-8.1,0.1-11.9,0.8c-3.6,0.7-6.9,1.3-10.2,0.8c-4.3-0.7-8.1-3.4-10.1-7.3c-0.9-1.9-1.6-3.9-2-5.9c-0.6-2.6-1.5-5.1-2.8-7.5
		c-0.6-1-1.2-1.9-1.9-2.8c-0.8-1-1.6-2.2-2.2-3.4c-1.1-2.6-0.8-6.1,0.8-9.3c1.8-3.5,4.9-6.2,8.7-7.5c3.7-1.2,7.8-0.6,11,1.6
		C388.4,131.9,388.4,131.9,388.5,131.9L388.5,131.9z M329.8,123.4c0.7-5.3,3.4-10.2,6-15.1c2.3-4.3,4.8-9,5.9-14.3
		c6.2,1.1,12.6,1.1,18.8,0.1c1.5-0.3,3.1-0.6,4.5-0.9c3.2-0.8,6.4-1.3,9.7-1.4c3.6,0,8.3,1.4,10.3,5c-1.8,3.8-6.4,6-9.2,7
		c-1.3,0.5-2.8,0.9-4.2,1.3c-3.6,1.1-7.3,2.2-10.6,4.4c-3,1.9-5.1,4.9-6,8.3c-2-2.7-3.5-5.8-4.6-9c-0.7-2.2-4.3-1.3-3.5,1
		c1.6,4.7,4,9.1,7.3,12.9c-2.3,0.6-4.4,1.8-6,3.5c-2.5,2.5-4.1,5.7-4.8,9.1c-1.1,0.7-2.2,1.5-3.2,2.3c-1.8-0.4-3.7-0.6-5.6-0.6
		c-0.1-0.1-0.2-0.3-0.4-0.4C330.8,134.1,329,128.9,329.8,123.4z M260.8,149.2c0.5-0.8,1-1.5,1.6-2.3c13.5-19.1,40-23.5,59-10
		c1.1,0.8,2.2,1.6,3.2,2.5c-3.7,1.7-6.9,4.3-9.2,7.7c-2.5,3.6-3.8,7.7-5,11.6c-0.1,0.4-0.3,0.8-0.4,1.2c-0.2-0.2-0.5-0.4-0.9-0.5
		c-15.7-4.7-32.2-8.6-46.9-5.6l-5.3,0.6C258.4,152.8,259.7,151,260.8,149.2z M300.4,169.6c2.3-1.5,4.8-2.8,7.4-3.8
		c-0.2,0.3-0.3,0.7-0.5,1c-1.5,3-3.6,5.8-6.2,8C301.3,173.1,301,171.3,300.4,169.6z M263.2,158.2c12.6-2.6,27.5,0.6,41,4.4
		c-4.8,2.2-9.2,5.4-13.3,8.7c-3.1,2.5-6.2,5-9.3,7.5c-0.7,0.6-1.4,1.1-2.1,1.7c-7.3-1.2-14.6,0.7-21.7,2.4c-6.6,1.6-12.8,3.2-19,2.5
		C245.3,173.2,252.1,162.3,263.2,158.2z M236.7,189.4c1.8,0.3,3.6,0.5,5.4,0.5c5.7,0,11.3-1.4,16.8-2.8c5.4-1.4,10.6-2.6,15.7-2.7
		c-6,4.9-12.3,9.5-18.8,13.8c-12.4,7.9-24.5,12.5-35.9,13.7C226.9,206.2,232.1,197.9,236.7,189.4z M239.1,224.9L239.1,224.9
		c-8.1-1.7-15.9-4.6-23.2-8.4c13.4-0.4,27.6-5.3,42.3-14.7c1.8-1.1,3.6-2.3,5.3-3.6c-2.9,8.7-6.4,16.1-12.7,20.8
		c-3.2,2.4-7.1,4-11.5,5.7C239.2,224.8,239.1,224.9,239.1,224.9z M249.5,226.2L249.5,226.2c-0.6,0-1.3-0.1-2-0.1c2-1,4-2.1,5.8-3.5
		c9.3-7,13.1-19.2,15.9-28.1c0.1-0.2,0.1-0.3,0.1-0.5c5.1-3.9,10.1-7.9,15-11.9c3-2.5,6.1-5,9.2-7.5c1-0.8,2.1-1.7,3.2-2.5
		c1,5.3-3.6,28-10.6,39.7C277.8,221.3,264.2,226.7,249.5,226.2z M313.7,207.8c-2,5.4-7.5,9-13.1,12.1c-5.1,2.8-10.3,5.4-15.7,7.8
		c1.6-4.5,3.2-9.1,4.9-13.6c3.5-5.8,6.9-15.2,9.2-25.3c0.8-3.3,1.4-6.6,1.8-9.9c5.1,4.8,7.4,11.6,9.7,18.9c1,3.2,2.1,6.4,3.4,9.5
		C313.9,207.5,313.8,207.6,313.7,207.8z M345.5,225.3c-0.1,0-0.2,0-0.4,0c-9.9-0.1-19.7-6.1-25-15.2c-2.4-4.1-3.9-9-5.4-13.6
		c-2.2-6.9-4.5-14-9.6-19.5c2.5-2.4,4.5-5.2,6.1-8.3c0.8-1.6,1.4-3.2,2-4.8c0.4-0.4,0.6-1,0.5-1.6c0.3-0.8,0.5-1.5,0.7-2.3
		c1.2-3.8,2.4-7.4,4.5-10.5c4-5.6,10.7-8.7,17.5-8.1c-5.8,7.2-7.6,16.8-5,25.6c0.9,2.5,1.9,4.9,3.1,7.2c0.3,0.7,0.7,1.4,1,2
		c-3.1-0.1-6.2,0.2-9.1,0.9c-2.3,0.6-1.3,4.1,1,3.5c3.2-0.8,6.5-1,9.8-0.7c0.2,0.7,0.5,1.4,0.6,2c0.6,2.9,0.9,5.9,0.9,8.9
		c0.1,2,0.1,4.2,0.4,6.3c1.4,11.6,9,21.9,19.1,25.8C354.1,224.5,349.8,225.2,345.5,225.3z M448.5,245.9c-2.9,1.3-5.8,2.5-8.8,3.4
		c-8.8,3-19.4,6.7-24.3,13.7c-6.9-7.3-25.9-14.2-29.1-15.2c-2-0.6-4-1.1-5.9-1.5c-4.7-1.1-9.2-2.2-13-4.6
		c-6.4-3.9-8.2-10.5-6.3-14.4c0.1-0.2,0.1-0.4,0.2-0.5c0.8-0.3,1.7-0.5,2.5-0.8c1-0.3,2-0.6,3-0.9c1.7,0.2,3.4,0.2,4.9,0.2
		c0.9,0,1.8,0,2.6-0.1c4.1-0.1,8.2-0.6,12.2-1c6.6-0.7,12.9-1.4,19.1-0.9c-0.1,0.5,0.1,1,0.4,1.4c4.8,5.9,7.2,13.5,6.7,21.1
		c-0.1,2.3,3.5,2.3,3.6,0c0.5-7.9-1.8-15.6-6.5-22c0.4,0.1,0.9,0.2,1.3,0.3c0.5,0.1,1,0,1.4-0.2c1,4.1,3.8,7.6,7.7,9.4l0,0
		c0,0,0,0,0.1,0c0,0,0,0,0.1,0c0.1,0,0.2,0.1,0.3,0.1c0,0,0.1,0,0.1,0c0.1,0,0.3,0,0.4,0.1c0.1,0,0.1,0,0.2,0
		c3.5-0.3,7.4-0.3,11.6-0.3c9.2,0,19.6-0.1,27.2-3.4c0.8-0.3,1.5-0.7,2.2-1.1C461.1,235.6,455.9,242.1,448.5,245.9z M458.5,225.9
		c-6,2.7-14.8,3-22.8,3.1c3.8-1.2,7.3-3,10.5-5.3c3.7-2.9,7.5-6,7.6-11.6c2.5-1.5,4.8-3.3,6.7-5.4c5.8-6.1,9.2-13.3,9.6-20.2
		c0-0.9,0-1.7,0-2.5c-0.1-1.4,0-2.8,0.2-4.1c0.5-1.9,1.2-3.8,2.2-5.5c0.7-1.4,1.4-2.8,1.9-4.3c1.9-5.4,2.8-27.2-8.2-38.6
		c0.8-1.7,1.8-3.4,2.8-5c1.3-2-1.9-3.8-3.1-1.8c-0.9,1.4-1.8,2.9-2.5,4.4c-2.4-1.5-5-2.7-7.7-3.6c-2.7-1-5.5-1.5-8.4-1.5
		c-0.5-3.1-1.6-6-3.3-8.6c3-4.2,9.7-4.4,14.8-3.3c1.7,0.4,3.4,0.9,5.1,1.3c4,1.1,8.1,2.2,12.3,2.1h0c-0.1,5.9,1.8,11.4,4.3,16.7
		c0,0.1,0.1,0.2,0.1,0.3c1.1,2.3,2.3,4.5,3.4,6.7c3.2,6.1,6.5,12.4,7.4,18.9c0.8,6.3-0.6,12.7-4,18.1c-0.8,1.2-1.7,2.4-2.6,3.6
		c-2.1,2.5-3.7,5.3-4.9,8.2c-0.9,3.1-1.4,6.3-1.4,9.5c0,1.7-0.2,3.4-0.4,5.1C476.7,214,467,222.1,458.5,225.9z M501.3,201.5
		c-1.2,3-2.5,6.1-3.9,8.9c-3.3,6.5-7.3,10.9-11.9,13.1c-4.1,2-10,2.2-14-0.8c6.1-5.4,10.2-12.3,11.2-19.5c0.2-1.8,0.4-3.7,0.4-5.5
		c0-2.8,0.3-5.6,1.1-8.2c1-2.4,2.3-4.7,4-6.7c0.1,0,0.2,0,0.3-0.1c3.3-1.4,7-1.4,10.3-0.1c2.2,0.8,3.1-2.7,1-3.5
		c-2.6-1-5.5-1.3-8.3-0.9c3.8-6.2,5.4-13.5,4.4-20.8c-1-7.3-4.5-13.9-7.8-20.3c-0.7-1.3-1.4-2.7-2.1-4c5.2,0.1,10.4,4,13.2,8.6
		c2.8,4.5,4.1,9.7,5.6,15.1c0.4,1.7,0.9,3.4,1.4,5.1c2.3,7.9,5.6,13.6,9.8,17.3c-4.1,3-7.7,7.5-10.7,13.4
		C503.7,195.6,502.5,198.6,501.3,201.5z M523.5,219.9c-5.6-3.1-15.5-11.7-18.1-17.1c1.1-2.7,2.3-5.6,3.6-8.2
		c3.3-6.5,7.2-11,11.8-13.3c1.1-0.5,1.5-1.9,1-2.9c-0.2-0.4-0.5-0.7-0.8-0.9c-4.1-2.5-7.2-6.8-9.6-13.4c4.4,1.3,8.5,3.2,12.4,5.7
		c-0.9,2.2-1.3,7.3,1.4,19.1c2.3,10,5.7,19.4,9.2,25.3c1.6,4.5,3.3,9.1,4.9,13.6C533.9,225.3,528.6,222.7,523.5,219.9z M574.7,226.2
		c-14.6,0.5-28.3-4.8-36.6-14.3c-7-11.7-11.6-34.3-10.7-39.6c1.1,0.8,2.2,1.6,3.2,2.4c3.1,2.4,6.2,5,9.2,7.5c4.9,4,9.8,8,15,11.9
		c0,0.2,0,0.4,0.1,0.5c2.8,8.9,6.6,21.1,15.9,28.1c1.8,1.3,3.8,2.5,5.8,3.5C576,226.1,575.3,226.1,574.7,226.2z M585.2,224.9
		c-0.1,0-0.2-0.1-0.2-0.1c-4.4-1.7-8.2-3.3-11.5-5.7c-6.3-4.8-9.8-12.2-12.7-20.8c1.8,1.2,3.5,2.4,5.3,3.6
		c14.7,9.3,28.9,14.3,42.3,14.7C601.1,220.4,593.3,223.2,585.2,224.9z"/>
	<path d="M652,427.5c12-39,20.2-79.1,24.5-119.7c4.3-42.2,3.1-77.3-3.6-101.5c-12-43.3-33-79.9-62.5-108.8
		c-23.5-23.1-52.5-41.4-86-54.4C468.5,21.6,418,22.3,415.6,22.3c-2.3,0-53.2-0.8-109.4,20.8c-33.7,12.9-62.8,31.2-86.5,54.4
		C190.1,126.4,169,163,157,206.3c-6.7,24.1-7.9,59.2-3.6,101.5c4.3,40.6,12.5,80.7,24.5,119.7c0.3,0.8,0.8,1.5,1.6,1.8
		c-2.5,5.1-4.5,10.4-5.9,15.9c-3.2,13.5-0.9,27.7,6.3,39.5c2,3.4,4.5,6.4,7.5,8.9c4.3,3.5,9.4,5.3,14.3,7.1c0.4,0.1,0.7,0.3,1.1,0.4
		c11.1,12.9,19.6,31.6,23.5,51.4c3.3,16.6,3.7,35.1,1.3,56.5c-0.1,1-0.2,2-0.3,2.9c-1,8.3-2,16.8-0.2,25.3c2.3,10.8,9.3,21,19.3,28
		c0,0,0.1,0.1,0.1,0.1c0,3.7,0.4,7.5,1.1,11.1c3.7,16.9,18.4,28.4,31.4,38.5l0.6,0.5c15.8,12.3,31,25.5,45.4,39.4l0.9,0.9
		c5.1,5,10.5,10.1,17,13.6c7.4,3.9,20.3,8.5,47.1,2.5c8.5-1.9,16.9-4.2,25.1-7c8.1,2.8,16.3,5.1,24.6,7c7.5,1.8,15.2,2.8,22.9,2.9
		c8.1,0,16.5-1.4,24.1-5.4c6.5-3.5,11.9-8.6,17-13.6l0.9-0.9c10.4-10,21.3-19.7,32.5-28.9c2-1,3.8-2.4,5.2-4.2
		c2.6-2.1,5.2-4.2,7.8-6.2l0.6-0.5c13-10.1,27.7-21.6,31.4-38.5c0.7-3.7,1.1-7.4,1.1-11.1c0,0,0.1-0.1,0.1-0.1
		c10-6.9,17-17.1,19.3-28c1.8-8.4,0.8-17-0.2-25.3c-0.1-1-0.2-2-0.3-2.9c-2.4-21.4-1.9-39.9,1.3-56.5c3.9-19.8,12.5-38.5,23.5-51.4
		c0.4-0.1,0.7-0.3,1.1-0.4c4.9-1.8,10-3.6,14.3-7.1c3-2.5,5.5-5.5,7.5-8.9c7.2-11.8,9.5-26,6.3-39.5c-1.4-5.5-3.4-10.8-5.9-15.9
		C651.1,429,651.7,428.3,652,427.5z M297.7,722.2c-0.1,0-0.1-0.1-0.2-0.1c-1.6-1.3-3.3-2.7-4.9-4c-0.5-0.8-0.9-1.7-1.1-2.7
		c-0.6-2.9,1-6.2,3.5-7.1c1.4-0.4,2.8-0.2,4,0.6c1,0.6,1.6,1.6,1.8,2.7c0.1,1.2,1.1,2.1,2.3,2c1.2-0.1,2.1-1.1,2-2.3
		c-0.2-2.5-1.6-4.8-3.7-6.1c-2.3-1.6-5.2-1.9-7.9-1c-3.8,1.6-6.4,5.3-6.5,9.4c-1.2-1-2.5-2-3.7-2.9l-0.6-0.5
		c-12.8-10-26-20.3-29.3-35.1c-1-4.7-1-10-1-15.1c0-9.5,0-19.4-6.4-27c-1-1.2-2.9-1.4-4.1-0.4c-1.2,1-1.4,2.9-0.4,4.1c0,0,0,0,0,0
		c4.6,5.5,5,13.1,5,21.2c-7.1-5.9-12-13.7-13.7-21.9c-1.6-7.5-0.7-15.6,0.2-23.4c0.1-1,0.2-2,0.3-3c2.4-22,2-41-1.4-58.2
		c-3.8-19.5-12-37.9-22.6-51.4c3.9-0.5,7.7-1.6,11.3-3.3c12.7,6.9,22,20.7,27.7,41.2c2.3,8.4,4,17,4.9,25.6
		c0.9,8.8,1.1,17.8,1.2,26.5c0.2,8.8,0.3,17.9,1.2,26.8c2.2,21.8,9.1,38.5,20.3,49.8c2.2,2.2,4.5,4.1,7.1,5.8
		c0.1,0.4,0.4,0.7,0.7,0.9c9.3,6.9,17,15.7,22.5,25.9c2,3.8,4.3,8.8,4,13.9c-0.3,4.1-3,8.8-7.4,9.6
		C301.2,723.2,299.4,722.9,297.7,722.2z M500.7,750.4l-0.9,0.9c-3.5,3.5-7.2,6.7-11.1,9.7c-14.4,0.4-28.5-5.6-40-14.5
		c3.8-4.5,6.7-9.7,8.8-15.2c0.2-0.1,0.4-0.2,0.6-0.3c5.2-3.7,9.6-8.3,14-12.7c3.1-3.2,6.4-6.5,9.9-9.4c4.4-3.7,16.1-12.1,27.7-8.7
		c1.2,0.3,2.4-0.3,2.7-1.5c0.1-0.3,0.1-0.7,0-1c-0.8-3.9-4-7.3-9-9.4c-11.5-5-25.9-1.6-33.3,7.8c-3.7,4.7-5.7,10.6-7.5,16.3
		c-0.8,2.6-1.6,5-2.6,7.4c0.3-5.2-0.9-10.4-3.6-14.9c-4.5-7.1-15.1-11.7-23.3-7c-5.3,3.1-7.9,9.8-6,15.1c1.2,3.1,3.7,5.5,6.8,6.5
		c2.8,1,5.8,0.7,8.4-0.8c1-0.6,1.3-2,0.7-3c-0.6-1-2-1.3-3-0.7c-1.4,0.8-3.1,0.9-4.6,0.3c-1.9-0.6-3.4-2-4.1-3.8
		c-1.2-3.4,0.6-7.9,4.1-9.9c5.8-3.4,13.9,0.1,17.4,5.5c3.4,5.4,3.9,13,1.4,20.9c-1.8,5.8-4.8,11.2-8.7,15.8
		c-15.5-13.4-25.6-32.3-29.8-52.4c-4.2,20.3-16.4,39.5-32.2,52.9c-4.1-4.8-7.2-10.3-9.1-16.3c-2.5-7.9-2-15.6,1.4-20.9
		c3.4-5.4,11.6-8.9,17.4-5.5c3.5,2.1,5.3,6.5,4.1,9.9c-0.7,1.8-2.2,3.2-4.1,3.8c-1.5,0.6-3.2,0.5-4.6-0.3c-1-0.6-2.4-0.3-3,0.7
		c-0.6,1-0.3,2.4,0.7,3c2.5,1.5,5.6,1.8,8.4,0.8c3.1-1,5.6-3.4,6.8-6.5c1.9-5.4-0.7-12-6-15.1c-8.1-4.8-18.8-0.2-23.3,7
		c-2.7,4.5-3.9,9.7-3.6,14.9c-0.9-2.3-1.8-4.8-2.6-7.4c-1.9-5.7-3.8-11.6-7.5-16.3c-7.5-9.4-21.8-12.7-33.3-7.8
		c-5,2.2-8.2,5.5-9,9.4c-0.2,1.2,0.5,2.3,1.7,2.6c0.3,0.1,0.7,0.1,1,0c11.6-3.4,23.3,5,27.7,8.7c3.5,2.9,6.7,6.2,9.9,9.4
		c4.3,4.4,8.8,9,14,12.7c0.2,0.1,0.4,0.2,0.6,0.3c2.1,5.7,5.2,11,9.1,15.6c-11.2,8.5-24.8,14.3-38.7,14.1c-3.9-3-7.6-6.2-11.1-9.7
		l-0.9-0.9c-8.3-8-16.8-15.7-25.6-23.2c0.1,0,0.1,0,0.2,0c6.6-1.2,10.5-7.8,11-13.6c0.5-6.2-2.1-12-4.5-16.3c-4-7.3-9-14-14.9-19.8
		c0.7,0.1,1.4,0.2,2.1,0.3c0.7,0.1,1.4,0.1,2.1,0.1c5.5,0,10.5-2,13.7-5.4c4.4-4.8,4.7-12.5,0.7-16.8c-2.5-2.5-6.1-3.6-9.5-2.8
		c-3,0.5-5.6,2.6-6.7,5.5c-0.4,1.1,0.2,2.4,1.4,2.8c1.1,0.4,2.4-0.2,2.8-1.3c0.6-1.4,1.9-2.4,3.4-2.7c1.9-0.5,4,0.1,5.4,1.5
		c2.5,2.7,2.2,7.8-0.7,10.9c-2.7,2.9-7.2,4.4-12.1,3.9c-8.1-0.7-14.6-5.8-18.7-9.9c-10.5-10.6-16.9-26.5-19.1-47.2
		c-0.9-8.8-1.1-17.7-1.2-26.4c0-2.7-0.1-5.5-0.2-8.2c2.5,7.9,6,15.5,10.5,22.6c1,1.6,2.1,3.2,3.1,4.7c1.5,2.3,3.1,4.7,4.5,7.1
		c2.7,4.7,4.7,9.7,5.9,14.9c0.2,1,1.1,1.7,2.1,1.7c0,0,0.1,0,0.1,0c1.1-0.1,1.9-0.9,2-1.9c1-8.5-0.6-16.9-2.1-23.3
		c-1.2-5.3-2.8-10.6-4.9-15.6c-4.7-11.2-12-21.2-21.4-28.9c-0.3-0.2-0.6-0.4-1-0.5c-0.9-8.7-2.6-17.3-4.9-25.7
		c-3.9-14.1-9.6-25.3-16.9-33.5c7,5.6,14,11.7,19.9,21.4c6,9.9,10,26.5,14.7,40.9c4.1,12.4,6.9,23.2,21.6,30.6v20.6
		c0,1.1,0,2.3-0.1,3.5c-0.2,5.3-0.5,11.4,3,15.9c0.9,1.4,2.2,2.5,3.7,3.2c1.1,0.4,2.3,0.7,3.5,0.6c2.3,0.1,4.6-0.5,6.6-1.7
		c2.2,4.1,6.2,7,10.7,7.8c3.8,0.7,7.7-0.8,10.1-3.8c1.3,2.6,3.1,4.9,5.2,6.9c3.4,3,8.8,3.1,12.3,2.2c2.3-0.6,4.3-1.8,5.9-3.6
		c2.8,5,7.7,8.5,13.2,9.6c5.5,1,11.1-1,14.7-5.2c3.5,4.8,9.7,9.1,15.3,9.2h0.1c9.2,0,15.8-6.5,19.2-10.2c7,6.8,13.9,10.2,20.7,10.2
		h0.1c5.5,0,11.8-4.4,15.3-9.2c3.6,4.2,9.2,6.2,14.7,5.2c5.6-1.1,10.4-4.6,13.2-9.6c1.5,1.8,3.6,3,5.9,3.6c3.5,0.9,8.9,0.8,12.3-2.2
		c2.1-2,3.9-4.3,5.2-6.9c2.4,3.1,6.3,4.5,10.1,3.8c4.6-0.8,8.5-3.7,10.7-7.8c2,1.2,4.3,1.8,6.6,1.7c1.2,0,2.4-0.2,3.5-0.6
		c1.5-0.7,2.8-1.9,3.7-3.2c3.4-4.6,3.2-10.6,3-15.9c-0.1-1.2-0.1-2.4-0.1-3.5v-20.5c14.8-7.4,17.6-18.2,21.7-30.7
		c4.8-14.4,8.7-31,14.7-40.9c5.7-9.4,12.5-15.4,19.3-21c-7.1,8.1-12.6,19.2-16.5,33c-2.3,8.4-4,17-4.9,25.7c-0.4,0.1-0.7,0.2-1,0.5
		c-9.4,7.7-16.8,17.7-21.4,28.9c-2.1,5.1-3.7,10.3-4.9,15.6c-1.5,6.4-3.1,14.8-2.1,23.3c0.1,1.1,1,1.9,2,1.9c0,0,0.1,0,0.1,0
		c1,0,1.9-0.7,2.1-1.7c1.3-5.2,3.3-10.3,5.9-14.9c1.4-2.4,3-4.8,4.5-7.1c1-1.5,2.1-3.1,3.1-4.7c4.4-7.1,7.9-14.6,10.5-22.6
		c-0.1,2.8-0.1,5.5-0.2,8.2c-0.2,8.7-0.3,17.7-1.2,26.4c-2.1,20.8-8.5,36.6-19.1,47.2c-4.1,4.1-10.6,9.1-18.7,9.9
		c-4.9,0.4-9.5-1-12.1-3.9c-2.9-3.1-3.2-8.2-0.7-10.9c1.4-1.4,3.5-1.9,5.4-1.5c1.5,0.2,2.8,1.2,3.4,2.7c0.4,1.1,1.6,1.7,2.8,1.3
		s1.7-1.6,1.3-2.8c-1.1-2.9-3.6-5-6.7-5.5c-3.4-0.8-7.1,0.3-9.5,2.8c-4,4.3-3.7,12,0.7,16.8c3.2,3.5,8.2,5.4,13.7,5.4
		c0.7,0,1.4,0,2.1-0.1c0.7-0.1,1.4-0.2,2.1-0.3c-5.9,5.8-10.9,12.5-14.9,19.8c-2.3,4.3-4.9,10.1-4.5,16.3c0.4,5.4,3.8,11.4,9.5,13.2
		C517.9,734.4,509.1,742.3,500.7,750.4z M464.5,719.6c0.8-2,1.4-4,2.1-6.1c1.8-5.6,3.5-10.8,6.8-14.9c4.3-5.4,11.4-8.4,18.5-8.4
		c3.3,0,6.6,0.7,9.7,2c1.7,0.7,3.2,1.7,4.5,2.9c-8.6-0.7-18.2,3-27,10.4c-3.6,3-6.9,6.4-10.2,9.7C467.5,716.7,466,718.2,464.5,719.6
		z M363.7,719.6L363.7,719.6c-1.5-1.5-2.9-2.9-4.4-4.4c-3.2-3.3-6.5-6.7-10.2-9.7c-8.2-6.9-16.9-10.5-25-10.5c-0.7,0-1.4,0-2.1,0.1
		c1.3-1.2,2.8-2.2,4.5-2.9c9.8-4.2,21.9-1.4,28.2,6.5c3.3,4.1,5,9.4,6.8,14.9C362.3,715.6,363,717.6,363.7,719.6z M260.3,570.3
		c6.7,6.6,12.1,14.5,15.7,23.2c2,4.8,3.5,9.8,4.7,14.9c0.6,2.6,1.3,5.6,1.7,8.8c-0.6-1.1-1.2-2.2-1.8-3.3c-1.5-2.5-3.1-5-4.7-7.3
		c-1-1.5-2.1-3.1-3-4.6C266.8,592.2,262.5,581.5,260.3,570.3z M296.3,616.7v-17.5c1.4,0.5,3.3,1.1,6.2,1.9h0c1.4,0.4,3,0.8,5,1.3
		v31.2c-1.1,1.4-2.9,2.1-5.4,2.1c-0.6,0-1.2-0.1-1.8-0.3c-0.8-0.5-1.4-1.1-1.9-1.9c-2.5-3.3-2.3-8.3-2.1-13.1
		C296.2,619.1,296.3,617.9,296.3,616.7z M296.3,594.5L296.3,594.5l0-18.8c0-2.9,2.3-6.5,5.3-6.6c4.1-0.2,5.5,4.1,5.9,5.4v23.4
		c-3.7-0.8-7.4-1.9-11-3.3C296.4,594.5,296.3,594.5,296.3,594.5z M311.8,598.9L311.8,598.9l0-24.6c0.2-4.8,3.9-8.1,6.5-8.4
		c6.2-0.6,8.8,3.9,9.2,7.9v28.2C321.4,601,316.1,599.9,311.8,598.9z M327.5,606.5V637c-2.7,5.6-6.3,5-7.6,4.8
		c-4.1-0.7-7.8-4.1-8.2-7.7v-30.7c3.9,0.9,8.5,1.8,14,2.8h0C326.4,606.3,327,606.4,327.5,606.5z M331.9,602.8L331.9,602.8l0-28.8
		c0.1-0.2,0.1-0.3,0.2-0.5c1.6-4.9,3.3-8.9,9.2-8.9c0,0,0.1,0,0.1,0c8.2,0.1,9.7,8.8,9.9,10.8v30
		C344.2,604.6,337.7,603.7,331.9,602.8z M351.3,609.8v32.8c-1.8,2.6-3.2,4-5.4,4.5c-2.6,0.6-6.4,0.5-8.4-1.2
		c-2.5-2.4-4.4-5.5-5.5-8.8v-29.9C337.5,608.1,344,609,351.3,609.8z M378.7,607.8c-8.3-0.5-16-1.2-23.1-1.9v-30.4
		c1.7-7.4,5.5-11.2,11.5-11.5c6.8-0.3,11.2,8.8,11.6,12.9V607.8z M378.7,612.2v35.5c-2.5,4.1-7.2,6.3-11.9,5.5
		c-5.3-1-10.3-5.5-11.1-10.1v-32.8C362.6,611,370.3,611.7,378.7,612.2L378.7,612.2z M413.3,613.3L413.3,613.3l-0.2,33.9
		c-0.1,0.1-0.2,0.2-0.3,0.4c-3.1,3.3-8.8,9.5-16.7,9.5H396c-4.7,0-10.9-5-12.9-9.3v-35.3C392.4,612.9,402.4,613.2,413.3,613.3z
		 M383.1,608.1v-30.9c0.7-2.3,4.6-13.8,12.9-13.6c12,0.3,17,9.1,17.5,16.5l-0.1,28.7C402.5,608.9,392.4,608.6,383.1,608.1z
		 M449,612.4v35.3c-2.1,4.3-8.3,9.3-12.9,9.3H436c-5.8,0-12-3.3-18.5-9.9l0.2-33.9C428.9,613.3,439.4,613,449,612.4z M417.7,608.9
		l0.1-28.7c0.8-9.4,8.7-16.6,18.2-16.6c8.5,0.3,12.3,11.3,13,13.6v30.9C439.3,608.6,428.8,608.9,417.7,608.9z M476.4,610.3
		L476.4,610.3v32.8c-0.8,4.6-5.8,9.1-11.1,10.1c-4.7,0.8-9.5-1.4-11.9-5.5v-35.5C461.7,611.7,469.4,611,476.4,610.3z M453.4,607.8
		V577c0.4-4,4.6-12.9,11.2-12.9c0.1,0,0.2,0,0.4,0c6,0.3,9.8,4.1,11.5,11.5v30.4C469.3,606.7,461.6,607.3,453.4,607.8z M500.1,607.2
		v29.9c-1.1,3.3-3,6.4-5.5,8.8c-2,1.8-5.8,1.9-8.4,1.2c-2.3-0.6-3.6-1.9-5.4-4.5v-32.8C488.1,609,494.5,608.1,500.1,607.2z
		 M480.8,605.5v-30c0.2-2,1.7-10.8,9.9-10.8c0,0,0.1,0,0.1,0c5.8,0,7.6,4,9.2,8.9c0.1,0.2,0.1,0.4,0.2,0.5v28.8
		C494.4,603.7,487.9,604.6,480.8,605.5z M504.5,606.5c0.6-0.1,1.2-0.2,1.7-0.3c5.5-1,10.2-1.9,14-2.8v30.7c-0.4,3.6-4.1,7-8.2,7.7
		c-1.2,0.2-4.9,0.8-7.6-4.8V606.5z M504.5,602.1v-28.3c0.4-4,3.1-8.5,9.2-7.9c2.6,0.2,6.4,3.5,6.5,8.4v24.6
		C515.9,599.9,510.6,601,504.5,602.1z M535.9,620.4c0.2,4.8,0.4,9.8-2.1,13.1c-0.5,0.8-1.1,1.4-1.9,1.9c-0.6,0.2-1.2,0.3-1.8,0.3
		c-2.5,0-4.3-0.7-5.4-2.1v-31.2c1.9-0.5,3.6-0.9,5-1.3h0c2.8-0.8,4.8-1.4,6.2-1.9v17.5C535.8,617.9,535.8,619.1,535.9,620.4z
		 M535.8,594.5c0,0-0.1,0.1-0.1,0.1c-3.6,1.4-7.3,2.5-11,3.3v-23.4c0.3-1.3,1.7-5.6,5.9-5.4c2.9,0.1,5.2,3.6,5.3,6.6V594.5z
		 M571.8,570.3c-2.2,11.2-6.5,22-12.6,31.7c-1,1.5-2,3.1-3,4.6c-1.6,2.4-3.2,4.8-4.7,7.3c-0.6,1.1-1.2,2.2-1.8,3.3
		c0.4-3.2,1.1-6.2,1.7-8.8c1.1-5.1,2.7-10.1,4.7-14.9C559.7,584.7,565,576.8,571.8,570.3z M597.9,551.3L597.9,551.3
		c-3.4,17.2-3.9,36.2-1.4,58.2c0.1,1,0.2,2,0.3,3c0.9,7.8,1.8,15.9,0.2,23.4c-1.7,8.2-6.7,16-13.7,21.9c0-8.1,0.4-15.6,5-21.2
		c1-1.2,0.9-3.1-0.4-4.1c-1.2-1-3.1-0.9-4.1,0.4c-6.4,7.6-6.4,17.5-6.4,27c0,5.1,0,10.4-1,15.1c-3.2,14.8-16.5,25.1-29.3,35.1
		l-0.6,0.5c-0.6,0.5-1.2,0.9-1.8,1.4c-0.6-3.5-3-6.5-6.3-7.9c-2.6-0.9-5.6-0.5-7.9,1c-2.1,1.3-3.5,3.6-3.7,6.1
		c-0.1,1.2,0.8,2.2,2,2.3c1.2,0.1,2.2-0.8,2.3-2c0.1-1.1,0.8-2.1,1.8-2.7c1.2-0.8,2.6-1,4-0.6c2.5,0.9,4.1,4.2,3.5,7.1
		c0,0,0,0,0,0.1c-3.1,2.5-6.1,5-9.2,7.5c-0.8,0.1-1.5,0.1-2.3-0.1c-4.4-0.8-7.1-5.6-7.4-9.6c-0.4-5.1,1.9-10.1,4-13.9
		c5.5-10.2,13.2-19.1,22.5-25.9c0.3-0.2,0.6-0.6,0.7-0.9c2.6-1.7,4.9-3.7,7.1-5.8c11.2-11.3,18.1-28.1,20.3-49.8
		c0.9-8.9,1.1-18,1.2-26.8c0.2-8.7,0.3-17.7,1.2-26.5c0.9-8.7,2.5-17.2,4.9-25.6c5.7-20.5,15-34.3,27.7-41.2c3,1.4,6.1,2.4,9.4,3
		C610,513.1,601.7,531.7,597.9,551.3z M648.5,324L648.5,324c3.8-9.1,8.1-17.9,12.6-26.7c3.7-7.2,9.6-15.8,6.5-24.1
		c0-0.3-0.1-0.6-0.3-0.8c-2-3.1-5.9-4.4-9.4-3c-4.7,0.4-9.2,2.4-12.6,5.6c-4.7,4.3-7.6,10.1-9.6,14.7c-10.9,25.7-12.7,57.4-5.4,96.8
		c1.7,9.1,4.2,20.9,8.7,31.9c1.3,3.2,2.9,6.4,4.3,9.5c3,6.3,5.8,12.2,7.3,18.5c2.8,12,0.8,24.6-5.6,35.1c-1.6,2.8-3.7,5.3-6.2,7.4
		c-3.5,2.9-8,4.5-12.6,6.2c-0.5,0.2-1,0.4-1.5,0.6c-7.7-0.5-15.8-4.3-24.3-11.5c0.1-0.6-0.1-1.2-0.5-1.7c-4.2-5.1-6.7-11.4-7.3-17.9
		c-0.5-6.5,1.8-12.8,6.3-17.5c1.4-1.5,3.2-2.6,5.2-3.1c1.6-0.3,3.3-0.1,4.8,0.5c3.5,1.5,5.8,4.9,5.9,8.7c0.1,3.1-1.7,6.1-4.2,6.9
		c-1.3,0.4-2.8,0.1-3.9-0.8c-0.8-0.6-1.4-1.5-1.4-2.5c0-1.2-1-2.2-2.2-2.2h0c-1.2,0-2.2,1-2.2,2.2c0,2.4,1.2,4.7,3.2,6
		c2.2,1.7,5.2,2.2,7.8,1.4c4.3-1.4,7.3-6.1,7.2-11.1c-0.2-5.5-3.5-10.5-8.6-12.7c-2.3-1-4.9-1.3-7.4-0.8c-2.8,0.7-5.4,2.1-7.4,4.2
		c-5.4,5.6-8.2,13.1-7.6,20.8c0.2,3.5,1,7,2.3,10.3c-4.8-4.6-9.7-9.3-15.3-13.2c-13.2-9-29.3-11.9-43.1-8c-6.2,1.8-11.9,5-16.7,9.4
		c-4,1.2-8,2-12.1,2.4c-3.3,0.3-6.6-0.5-9.5-2.2c-2.6-1.6-4.2-4.4-4.3-7.5c0-1.1,0.5-2.1,1.2-2.9c0.6-0.6,1.4-1,2.2-0.9
		c0.9,0,1.8,0.4,2.5,0.9c0.3,1,1.3,1.6,2.3,1.5c1.2-0.1,2.1-1.2,2-2.4c-0.2-2-2.4-3.4-4.2-4c-2.8-1.1-6-0.3-8,1.9
		c-1.4,1.5-2.3,3.6-2.4,5.7c0,4.6,2.4,8.9,6.3,11.3c2.6,1.6,5.5,2.5,8.4,2.8c-4.7,2.5-9,6.2-12.9,10.9c-2.8,3.4-5.3,6.9-7.7,10.2
		c-5.5,7.7-10.2,14.3-16,15.4c-1.2,0.2-2,1.4-1.7,2.6c0.2,0.9,0.9,1.6,1.8,1.7c1.4,0.2,2.7,0.3,4.1,0.3c13,0,26.4-9.2,32.3-18.9
		c0.6-1,1.2-2,1.8-2.9c8.7-14.3,16.2-26.7,31.7-31.1c12.6-3.6,27.3-0.8,39.4,7.4c1.9,1.3,3.8,2.7,5.5,4.2c-5.5-1.2-11.1-2-15.7-1.5
		c-5.9,0.7-14.2,2.9-19.7,9.3c-0.7,0.8-1.5,1.7-2.3,2.7c-4,4.8-10.7,12.9-15.5,13.1l-0.2,0c-1.2,0-2.2,1-2.1,2.2
		c0,1.2,1,2.1,2.2,2.1h0c0.1,0,0.2,0,0.3,0c8-0.1,17-0.4,24.9-4.5c3.1-1.8,6.1-3.9,8.8-6.3c0.5-0.5,1.1-0.9,1.6-1.3
		c9.4-7.6,17.5-10.7,24.8-9.6c0.9,0.9,1.8,1.7,2.7,2.6c2.8,2.7,5.8,5.6,8.8,8.2c2.9,2.6,6.1,4.9,9.4,6.9
		c-15.7,6.7-29.8,7.1-42.1,15.2c-11.6,7.6-20.7,23.5-23.4,37.1c-1.3,6.5-1.6,15.4-1.7,24.4c-1.5-3.3-4.7-5.5-8.3-5.8
		c-3-0.2-5.8,1.1-7.7,3.4c-2-3.8-5.6-6.2-8.9-6.6c-5.7-0.5-9.7,2-11.9,5.7c-1.8-3.6-5.1-7-11.4-7c0,0-0.1,0-0.1,0
		c-6.2,0-10.2,3.6-12.3,8c-2.5-5.1-7.6-8.4-13.2-8.5c-6.7-0.4-11.7,5.2-14.3,10.6c-0.8-1.6-1.8-3.1-2.8-4.4
		c-3.3-4.2-7.4-6.4-11.9-6.6c-9.3-0.3-16.8,5.4-20.4,12.5c-3.1-6.8-9.5-12.3-19.7-12.5c-7.7-0.2-12.3,5.9-14.9,11
		c-2.6-5.4-7.5-10.9-14.2-10.6c-5.7,0.1-10.8,3.4-13.2,8.5c-2.1-4.4-6.1-7.9-12.3-8c0,0-0.1,0-0.1,0c-6.3,0-9.6,3.5-11.4,7
		c-2.2-3.6-6.2-6.2-11.9-5.7c-3.3,0.3-6.9,2.8-8.9,6.6c-1.8-2.3-4.7-3.6-7.7-3.4c-3.5,0.3-6.5,2.4-8.1,5.5
		c-0.1-8.9-0.4-17.6-1.7-24.1c-2.8-13.6-11.9-29.5-23.4-37.1c-12.3-8.1-26.4-8.5-42.2-15.2c3.3-2,6.4-4.3,9.3-6.9
		c3-2.6,6-5.5,8.8-8.2c0.9-0.9,1.8-1.7,2.7-2.6c7.2-1.2,15.3,2,24.8,9.6c0.6,0.4,1.1,0.9,1.7,1.3c2.7,2.4,5.7,4.5,8.8,6.3
		c7.8,4.2,16.9,4.4,24.9,4.5c0.1,0,0.2,0,0.3,0h0c1.2,0,2.2-1,2.2-2.2c0-1.2-1-2.2-2.1-2.2l-0.2,0c-4.9-0.2-11.5-8.3-15.5-13.1
		c-0.8-1-1.6-2-2.3-2.7c-5.5-6.3-13.8-8.6-19.7-9.3c-4.6-0.6-10.2,0.2-15.7,1.5c1.8-1.5,3.6-2.9,5.5-4.2c12.1-8.2,26.8-11,39.4-7.4
		c15.5,4.4,23,16.8,31.7,31.1c0.6,1,1.2,2,1.8,2.9c5.9,9.7,19.4,18.9,32.3,18.9c1.4,0,2.8-0.1,4.1-0.3c1.2-0.2,2-1.3,1.8-2.5
		c-0.1-0.9-0.8-1.6-1.7-1.8c-5.8-1.1-10.5-7.7-16-15.4c-2.4-3.3-4.8-6.8-7.7-10.2c-3.9-4.7-8.2-8.3-12.9-10.9c3-0.3,5.9-1.2,8.4-2.8
		c3.9-2.4,6.3-6.7,6.3-11.3c-0.1-2.1-0.9-4.1-2.4-5.7c-2-2.2-5.2-2.9-8-1.9c-1.8,0.6-4,2-4.2,4c-0.1,1,0.5,2,1.5,2.3
		c1.1,0.4,2.4-0.3,2.8-1.4c0.7-0.6,1.6-0.9,2.5-0.9c0.9-0.1,1.7,0.3,2.2,0.9c0.7,0.8,1.2,1.8,1.2,2.9c-0.1,3.1-1.7,5.9-4.3,7.5
		c-2.9,1.7-6.2,2.4-9.5,2.2c-4.1-0.4-8.2-1.2-12.1-2.4c-4.8-4.4-10.5-7.6-16.7-9.4c-13.8-4-29.9-1-43.1,8
		c-5.6,3.8-10.6,8.6-15.3,13.2c1.3-3.3,2.1-6.8,2.3-10.3c0.5-7.7-2.2-15.3-7.6-20.8c-2-2.1-4.6-3.6-7.4-4.2c-2.5-0.5-5-0.2-7.4,0.8
		c-5.1,2.2-8.4,7.1-8.6,12.7c-0.1,5.1,2.9,9.7,7.2,11.1c2.7,0.8,5.6,0.3,7.8-1.4c2-1.4,3.2-3.6,3.2-6c0-1.2-1-2.2-2.2-2.2h0
		c-1.2,0-2.2,1-2.2,2.2c0,0,0,0,0,0c-0.1,1-0.6,1.9-1.4,2.5c-1.1,0.8-2.6,1.1-3.9,0.8c-2.5-0.8-4.3-3.8-4.2-6.9
		c0.1-3.8,2.4-7.2,5.9-8.7c1.5-0.7,3.2-0.8,4.8-0.5c2,0.5,3.8,1.6,5.2,3.1c4.5,4.7,6.8,11,6.3,17.5c-0.5,6.6-3.1,12.8-7.3,17.9
		c-0.4,0.5-0.5,1.1-0.5,1.7c-9.2,7.8-18.1,11.7-26.3,11.5c-0.5-0.2-1.1-0.4-1.7-0.6c-4.7-1.7-9.1-3.3-12.6-6.2
		c-2.5-2.1-4.6-4.6-6.2-7.4c-6.4-10.5-8.4-23.1-5.6-35.1c1.5-6.4,4.3-12.3,7.3-18.5c1.5-3.1,3-6.3,4.3-9.5c4.6-11,7.1-22.9,8.7-31.9
		c7.3-39.4,5.5-71.1-5.4-96.8c-2-4.6-4.8-10.4-9.6-14.7c-3.1-2.9-7-4.8-11.2-5.4c-3.4-1.3-7-1-9.8,2.8c-0.2,0.2-0.3,0.5-0.3,0.8
		c-3.1,8.1,2.6,16.5,6.2,23.5c4.6,9,9,18,12.9,27.3c7.5,17.8,12.8,36.7,12.4,56.1c-0.3,1.8-0.6,3.5-0.9,5.3
		c-1.7,9.3-4.1,20.3-8.4,30.7c-0.9,2.2-1.9,4.4-2.9,6.6c-24.2-79.4-32.6-169.3-19.9-215c11.7-42.2,32.2-77.9,61-106.1
		c23.1-22.6,51.5-40.4,84.4-53.1c1.4-0.5,2.9-1.1,4.3-1.6c-5.2,5.3-9.2,11.6-11.8,18.6c-0.2,0.1-0.4,0.2-0.6,0.3
		c-5.2,3.7-9.6,8.3-14,12.7c-3.1,3.2-6.4,6.5-9.9,9.4c-4.4,3.7-16.1,12.1-27.7,8.7c-1.2-0.3-2.4,0.3-2.7,1.5c-0.1,0.3-0.1,0.7,0,1
		c0.8,3.9,4,7.3,9,9.4c3.6,1.5,7.4,2.3,11.3,2.3c8.5,0,16.9-3.6,22-10.1c3.7-4.7,5.7-10.6,7.5-16.3c0.8-2.6,1.6-5,2.6-7.4
		c-0.3,5.2,0.9,10.4,3.6,14.9c3.5,5.4,9.5,8.7,15.9,8.9c2.6,0,5.1-0.7,7.4-2c5.3-3.1,7.9-9.8,6-15.1c-1.2-3.1-3.7-5.5-6.8-6.5
		c-2.8-1-5.8-0.7-8.4,0.8c-1,0.6-1.3,2-0.7,3c0.6,1,2,1.3,3,0.7c1.4-0.8,3.1-0.9,4.6-0.3c1.9,0.6,3.4,2,4.1,3.8
		c1.2,3.4-0.6,7.9-4.1,9.9c-5.8,3.4-13.9-0.1-17.4-5.5c-3.4-5.4-3.9-13-1.4-20.9c3.5-11.1,11.1-20.5,21.2-26.3
		c49-15.4,89.9-14.5,90.3-14.5c0.1,0,0.1,0,0.2,0c0.4,0,37.3-0.8,83,12.5c10,5.5,19.4,16.9,23,28.4c2.5,7.9,2,15.6-1.4,20.9
		c-3.4,5.4-11.6,8.9-17.4,5.5c-3.5-2.1-5.3-6.5-4.1-9.9c0.7-1.8,2.2-3.2,4.1-3.8c1.5-0.6,3.2-0.5,4.6,0.3c1,0.6,2.4,0.3,3-0.7
		c0.6-1,0.3-2.4-0.7-3c-2.5-1.5-5.6-1.8-8.4-0.8c-3.1,1-5.6,3.4-6.8,6.5c-1.9,5.4,0.7,12,6,15.1c2.2,1.3,4.8,2,7.4,2
		c6.4-0.2,12.4-3.5,15.9-8.9c2.7-4.5,3.9-9.7,3.6-14.9c0.9,2.3,1.8,4.8,2.6,7.4c1.9,5.7,3.8,11.6,7.5,16.3
		c5.1,6.5,13.5,10.1,22,10.1c3.9,0,7.7-0.8,11.3-2.3c5-2.2,8.2-5.5,9-9.4c0.2-1.2-0.5-2.3-1.7-2.6c-0.3-0.1-0.7-0.1-1,0
		c-11.6,3.4-23.3-5-27.7-8.7c-3.5-2.9-6.7-6.2-9.9-9.4c-4.3-4.4-8.8-9-14-12.7c-0.2-0.1-0.4-0.2-0.6-0.3c-3-8-7.8-15.2-14-21.1
		c3.7,1.2,7.4,2.6,11.1,4c32.8,12.6,61.1,30.5,84,53.1c28.7,28.2,49.2,63.9,60.9,106.2c12.7,45.6,4.3,135.6-19.9,215
		c-1-2.2-2-4.4-2.9-6.6c-4.3-10.5-6.7-21.4-8.4-30.7c-0.2-0.9-0.3-1.8-0.5-2.7c0.4-0.3,0.7-0.8,0.6-1.4
		C635.4,361.5,640.8,342.2,648.5,324z M508.3,471.4c-3.7,5.1-7.2,10.3-10.4,15.8c-0.6,1-1.2,2-1.8,2.9c-5.3,8.6-14.8,14.3-23.3,16.1
		c3.5-3.2,6.7-7.6,10.1-12.4c2.3-3.3,4.8-6.6,7.5-10C495.6,477.5,501.6,473.4,508.3,471.4z M573,473.3c-5.5,2.2-10.7,5.2-15.2,9.1
		c-0.6,0.5-1.1,0.9-1.7,1.4c-2.5,2.2-5.2,4.2-8.1,5.8c-4.1,2-8.5,3.2-13.1,3.5c3.3-3,6.3-6.3,9.1-9.9c0.8-1,1.6-1.9,2.2-2.7
		c3.6-4.1,9.6-6.9,17-7.8c0.9-0.1,1.8-0.2,2.7-0.2C568.2,472.7,570.6,472.9,573,473.3L573,473.3z M259.1,473.3L259.1,473.3
		c3.2-0.6,6.6-0.8,9.8-0.5c7.3,0.9,13.3,3.7,17,7.8c0.6,0.7,1.4,1.7,2.2,2.7c2.8,3.5,5.8,6.8,9.1,9.9c-4.6-0.3-9-1.5-13.1-3.5
		c-2.9-1.7-5.6-3.6-8.1-5.8c-0.6-0.5-1.1-0.9-1.7-1.4C269.7,478.5,264.6,475.5,259.1,473.3z M341.6,483.8c2.7,3.3,5.2,6.7,7.5,10
		c3.4,4.8,6.6,9.3,10.1,12.4c-8.5-1.8-18.1-7.5-23.3-16.1c-0.6-1-1.2-2-1.8-2.9c-3.2-5.4-6.6-10.7-10.4-15.8h0
		C330.4,473.4,336.4,477.5,341.6,483.8z M293.5,77.3c-0.8,2-1.4,4-2.1,6.1c-1.8,5.6-3.5,10.8-6.8,14.9c-6.3,7.9-18.4,10.7-28.2,6.5
		c-1.7-0.7-3.2-1.7-4.5-2.9c8.6,0.7,18.2-3,27-10.4c3.6-3,6.9-6.4,10.2-9.7C290.5,80.2,292,78.7,293.5,77.3z M532.2,77.3
		c1.5,1.5,2.9,2.9,4.4,4.4c3.2,3.3,6.5,6.7,10.2,9.7c8.9,7.5,18.5,11.1,27,10.4c-1.3,1.2-2.8,2.2-4.5,2.9
		c-9.8,4.2-21.9,1.4-28.2-6.5c-3.3-4.1-5-9.4-6.8-14.9C533.7,81.3,533,79.3,532.2,77.3z"/>
	<path d="M451.1,429.9c-2.4-6.8-5.5-13.4-8.5-19.9c-5.8-12.4-11.7-25.2-12.5-38.9c0-0.6-0.5-1.1-1.1-1c-0.4,0-0.7,0.2-0.9,0.6
		c-4.9,9.4-9.1,19.2-12.7,29.2c-3.7-10-8.1-19.8-13-29.3c-0.3-0.5-0.9-0.7-1.5-0.5c-0.3,0.2-0.6,0.5-0.6,0.9
		c-0.7,13.7-6.7,26.5-12.5,38.9c-3,6.5-6.1,13.1-8.5,19.9c-5.4,15.5-6.5,30.5-3.1,43.5c4,15.3,14.7,27.8,27.8,32.7
		c0.4,0.2,0.9,0,1.2-0.3c3.9-4.3,7.3-9,10.3-13.9c3.6,6.4,6.8,11,9.6,14.1c0.3,0.3,0.8,0.4,1.2,0.3c13.2-4.9,23.8-17.5,27.8-32.7
		C457.6,460.4,456.6,445.3,451.1,429.9z"/>
	<path d="M442.6,524.8C442.6,524.8,442.5,524.8,442.6,524.8c0-0.2-0.1-0.2-0.1-0.3c0,0,0-0.1-0.1-0.1c0-0.1-0.1-0.1-0.1-0.2
		c0,0-0.1-0.1-0.1-0.1c0,0,0-0.1-0.1-0.1l-9.8-11.4c-0.2-0.2-0.5-0.4-0.8-0.5c-0.2-0.1-0.4-0.1-0.7-0.1h-31.2c-0.2,0-0.4,0-0.6,0.1
		c0,0,0,0-0.1,0h0l0,0c-0.3,0.1-0.6,0.3-0.8,0.5l-9.8,11.4c0,0,0,0.1-0.1,0.1c0,0-0.1,0.1-0.1,0.1c0,0.1-0.1,0.1-0.1,0.2
		c0,0,0,0.1-0.1,0.1c0,0.1-0.1,0.1-0.1,0.2c0,0,0,0.1,0,0.1c0,0.1,0,0.2,0,0.3l0,0c0,0,0,0,0,0.1c0,0.1,0,0.2,0,0.3c0,0,0,0.1,0,0.1
		c0,0.1,0,0.1,0.1,0.2c0,0,0,0.1,0.1,0.1c0,0.1,0.1,0.1,0.1,0.2c0,0,0.1,0.1,0.1,0.1c0,0,0,0,0,0.1l25.5,31.8l0,0
		c0.1,0.1,0.2,0.2,0.3,0.3c0,0,0.1,0,0.1,0.1c0.1,0,0.1,0.1,0.2,0.1c0,0,0,0,0.1,0c0.1,0,0.2,0.1,0.3,0.1c0,0,0.1,0,0.1,0
		c0.1,0,0.3,0.1,0.4,0.1l0,0h0l0,0c0.1,0,0.3,0,0.4-0.1c0,0,0.1,0,0.1,0c0.1,0,0.2-0.1,0.3-0.1c0,0,0,0,0.1,0c0.1,0,0.1-0.1,0.2-0.1
		c0,0,0.1,0,0.1-0.1c0.1-0.1,0.2-0.2,0.3-0.3l0,0l25.5-31.8c0,0,0,0,0-0.1c0,0,0.1-0.1,0.1-0.1c0-0.1,0.1-0.1,0.1-0.2
		c0,0,0-0.1,0.1-0.1c0-0.1,0-0.1,0.1-0.2c0,0,0-0.1,0-0.1c0-0.1,0-0.2,0-0.2c0,0,0-0.1,0-0.1l0,0C442.6,525,442.6,524.9,442.6,524.8
		z M431.6,517.3l5.2,6h-7.4L431.6,517.3z M428.3,515.6l-2.3,6.3l-6.4-6.3H428.3z M422.4,523.3h-14.2l7.1-7L422.4,523.3z
		 M410.9,515.6l-6.4,6.3l-2.3-6.3H410.9z M399,517.3l2.2,6h-7.4L399,517.3z M393.6,527h8.9l7.3,20.3L393.6,527z M415.3,551.6
		l-8.9-24.6h17.9L415.3,551.6z M420.7,547.2l7.3-20.3h8.9L420.7,547.2z"/>
	<path d="M381.2,535.6c-0.1-0.3-0.4-0.5-0.7-0.5h0c-0.3,0-0.6,0.2-0.7,0.4l-4.3,10.2c-0.1,0.2-0.1,0.4,0,0.6l4.3,10.2
		c0.1,0.3,0.4,0.4,0.7,0.4h0c0.3,0,0.6-0.2,0.7-0.5l3.9-10.2c0.1-0.2,0.1-0.4,0-0.5L381.2,535.6z"/>
	<path d="M416.1,661.1c-0.1-0.3-0.4-0.5-0.7-0.5h0c-0.3,0-0.6,0.2-0.7,0.4l-6.1,14.3c-0.1,0.2-0.1,0.4,0,0.6l6.1,14.3
		c0.1,0.3,0.4,0.4,0.7,0.4h0c0.3,0,0.6-0.2,0.7-0.5l5.5-14.3c0.1-0.2,0.1-0.4,0-0.5L416.1,661.1z"/>
	<path d="M452.1,659.4c-0.1-0.3-0.4-0.5-0.7-0.5h0c-0.3,0-0.6,0.2-0.7,0.4l-4.3,10.2c-0.1,0.2-0.1,0.4,0,0.6l4.3,10.2
		c0.1,0.3,0.4,0.4,0.7,0.4h0c0.3,0,0.6-0.2,0.7-0.5l3.9-10.2c0.1-0.2,0.1-0.4,0-0.5L452.1,659.4z"/>
	<path d="M381.7,659.4c-0.1-0.3-0.4-0.5-0.7-0.5h0c-0.3,0-0.6,0.2-0.7,0.4l-4.3,10.2c-0.1,0.2-0.1,0.4,0,0.6l4.3,10.2
		c0.1,0.3,0.4,0.4,0.7,0.4h0c0.3,0,0.6-0.2,0.7-0.5l3.9-10.2c0.1-0.2,0.1-0.4,0-0.5L381.7,659.4z"/>
	<path d="M355.6,535.6c-0.1-0.3-0.4-0.5-0.7-0.5h0c-0.3,0-0.6,0.2-0.7,0.4l-4.3,10.2c-0.1,0.2-0.1,0.4,0,0.6l4.3,10.2
		c0.1,0.3,0.4,0.4,0.7,0.4h0c0.3,0,0.6-0.2,0.7-0.5l3.9-10.2c0.1-0.2,0.1-0.4,0-0.5L355.6,535.6z"/>
	<path d="M330.8,539.7c-0.1-0.3-0.4-0.5-0.7-0.5c-0.3,0-0.6,0.2-0.7,0.4l-2.6,6.1c-0.1,0.2-0.1,0.4,0,0.6l2.6,6.1
		c0.1,0.3,0.4,0.4,0.7,0.4h0c0.3,0,0.6-0.2,0.7-0.5l2.3-6.1c0.1-0.2,0.1-0.4,0-0.5L330.8,539.7z"/>
	<path d="M308,539.7c-0.1-0.3-0.4-0.5-0.7-0.5c-0.3,0-0.6,0.2-0.7,0.4l-2.6,6.1c-0.1,0.2-0.1,0.4,0,0.6l2.6,6.1
		c0.1,0.3,0.4,0.4,0.7,0.4h0c0.3,0,0.6-0.2,0.7-0.5l2.3-6.1c0.1-0.2,0.1-0.4,0-0.5L308,539.7z"/>
	<path d="M452.2,535.6c-0.1-0.3-0.4-0.4-0.7-0.4h0c-0.3,0-0.6,0.2-0.7,0.5l-3.9,10.2c-0.1,0.2-0.1,0.4,0,0.5l3.9,10.2
		c0.1,0.3,0.4,0.5,0.7,0.5h0c0.3,0,0.6-0.2,0.7-0.4l4.3-10.2c0.1-0.2,0.1-0.4,0-0.6L452.2,535.6z"/>
	<path d="M476.4,556.6c0.1,0.3,0.4,0.5,0.7,0.5h0c0.3,0,0.6-0.2,0.7-0.4l4.3-10.2c0.1-0.2,0.1-0.4,0-0.6l-4.3-10.2
		c-0.1-0.3-0.4-0.4-0.7-0.4h0c-0.3,0-0.6,0.2-0.7,0.5l-3.9,10.2c-0.1,0.2-0.1,0.4,0,0.5L476.4,556.6z"/>
	<path d="M501.2,552.5c0.1,0.3,0.4,0.5,0.7,0.5h0c0.3,0,0.6-0.2,0.7-0.4l2.6-6.1c0.1-0.2,0.1-0.4,0-0.6l-2.6-6.1
		c-0.1-0.3-0.4-0.4-0.7-0.4h0c-0.3,0-0.6,0.2-0.7,0.5l-2.3,6.1c-0.1,0.2-0.1,0.4,0,0.5L501.2,552.5z"/>
	<path d="M524.1,552.5c0.1,0.3,0.4,0.5,0.7,0.5h0c0.3,0,0.6-0.2,0.7-0.4l2.6-6.1c0.1-0.2,0.1-0.4,0-0.6l-2.6-6.1
		c-0.1-0.3-0.4-0.4-0.7-0.4h0c-0.3,0-0.6,0.2-0.7,0.5l-2.3,6.1c-0.1,0.2-0.1,0.4,0,0.5L524.1,552.5z"/>
</g>
</svg>
